<?xml version="1.0" standalone="no"?>
<!DOCTYPE svg PUBLIC "-//W3C//DTD SVG 20010904//EN"
 "http://www.w3.org/TR/2001/REC-SVG-20010904/DTD/svg10.dtd">
<svg version="1.0" xmlns="http://www.w3.org/2000/svg"
 width="400.000000pt" height="400.000000pt" viewBox="0 0 400.000000 400.000000"
 preserveAspectRatio="xMidYMid meet">
<metadata>
Created by potrace 1.14, written by Peter Selinger 2001-2017
</metadata>
<g transform="translate(0.000000,400.000000) scale(0.100000,-0.100000)"
fill="#000000" stroke="none">
<path d="M759 3988 c-3 -33 2 -46 60 -151 18 -31 33 -68 34 -80 1 -13 12 -36
25 -52 64 -83 82 -108 77 -113 -2 -3 -10 -1 -17 5 -7 5 -28 10 -45 11 -47 3
-43 -24 7 -45 22 -10 40 -21 40 -25 0 -4 16 -10 35 -14 20 -3 35 -12 35 -20 0
-8 5 -14 10 -14 6 0 10 -7 10 -17 0 -9 3 -13 7 -10 3 4 11 -3 17 -16 7 -12 18
-22 26 -23 39 -3 42 -5 37 -23 -3 -14 -1 -18 9 -14 16 6 48 -23 39 -37 -3 -5
0 -7 8 -4 14 5 45 -50 39 -69 -1 -5 2 -6 8 -2 5 3 10 2 10 -3 0 -5 14 -23 30
-41 17 -17 28 -37 24 -43 -4 -7 -3 -8 5 -4 6 4 14 -1 19 -14 4 -12 12 -20 17
-19 6 1 14 -11 20 -27 5 -16 16 -35 23 -43 31 -32 -20 -24 -56 10 -12 11 -22
31 -22 44 0 14 -4 25 -10 25 -5 0 -10 7 -10 16 0 9 -5 12 -12 8 -7 -5 -9 -2
-5 9 4 11 2 14 -9 10 -8 -3 -14 1 -14 11 0 9 -7 16 -16 16 -9 0 -18 9 -21 20
-3 12 -14 20 -26 20 -11 0 -17 3 -14 7 4 3 -1 15 -10 26 -10 10 -17 21 -15 23
1 2 -1 3 -5 2 -5 -2 -7 -7 -5 -11 1 -5 -2 -6 -7 -2 -6 3 -7 13 -4 22 4 11 3
14 -5 9 -17 -10 -15 -33 4 -40 8 -3 12 -10 9 -16 -3 -6 1 -13 9 -16 9 -3 13
-10 10 -15 -3 -5 0 -9 5 -9 6 0 11 -5 11 -11 0 -5 -5 -7 -12 -3 -7 4 -8 3 -4
-4 4 -6 14 -8 23 -5 11 4 14 3 9 -5 -4 -7 -1 -15 8 -18 8 -3 17 -13 20 -21 6
-14 4 -14 -10 -2 -9 7 -22 14 -29 15 -19 3 -55 37 -55 52 0 7 -7 20 -16 29 -8
9 -14 26 -12 38 3 25 -19 58 -33 49 -5 -3 -9 0 -9 6 0 7 8 9 22 5 17 -6 20 -4
15 9 -4 11 -3 15 4 11 5 -4 7 -15 4 -25 -3 -10 -1 -21 5 -25 10 -6 15 9 10 30
-1 6 -3 15 -3 22 0 7 -3 12 -6 11 -22 -2 -31 4 -25 15 5 7 1 6 -10 -2 -16 -13
-17 -13 -14 4 2 14 -3 20 -19 21 -12 1 -20 -2 -17 -7 2 -4 12 -5 22 -2 15 6
15 5 3 -10 -13 -17 -7 -22 21 -19 3 1 9 -5 12 -13 3 -9 0 -12 -9 -9 -9 4 -19
-4 -26 -20 -10 -20 -9 -30 5 -51 12 -18 13 -25 4 -25 -12 0 -37 22 -87 78 -12
12 -30 22 -41 22 -25 0 -80 27 -80 39 0 4 -6 8 -12 8 -7 0 -19 2 -27 4 -8 2
-17 -4 -19 -14 -4 -19 62 -87 84 -87 7 0 18 -8 23 -17 6 -10 11 -14 11 -9 0
12 40 -24 40 -37 0 -5 -7 -6 -16 -3 -8 3 -12 2 -9 -4 3 -6 1 -10 -4 -10 -15 0
-14 -30 2 -31 6 -1 35 -3 62 -5 34 -3 55 -10 67 -24 9 -11 18 -16 20 -10 5 15
24 -2 33 -28 6 -22 5 -23 -14 -12 -12 6 -27 8 -33 4 -6 -4 -27 -7 -47 -6 -19
1 -38 -4 -42 -10 -10 -15 22 -38 47 -34 10 2 27 -1 36 -5 9 -5 19 -5 22 -1 7
12 51 7 51 -5 0 -6 4 -15 8 -20 5 -4 7 -1 5 7 -2 11 7 14 39 14 31 -1 48 -8
66 -28 13 -14 26 -23 29 -21 7 7 51 -16 71 -37 17 -17 23 -33 9 -24 -4 2 -9
-4 -9 -15 -1 -10 2 -19 8 -19 5 0 8 5 6 12 -4 20 29 20 49 1 9 -10 19 -17 22
-15 2 2 5 2 7 0 2 -2 -5 -4 -16 -5 -11 -1 -23 5 -26 13 -3 7 -9 11 -15 8 -5
-3 -1 -12 9 -19 15 -12 16 -16 4 -27 -10 -9 -12 -9 -7 0 7 11 -6 17 -28 13 -5
-1 -17 6 -28 16 -17 16 -18 16 -12 0 3 -9 10 -17 15 -17 5 0 9 -8 10 -17 0
-11 3 -13 6 -6 3 9 10 10 23 3 10 -5 27 -7 37 -3 15 6 16 4 5 -9 -10 -12 -10
-18 2 -27 15 -12 49 -3 47 12 -1 4 0 6 2 5 1 -1 12 4 24 10 20 11 24 9 40 -15
10 -16 20 -30 24 -33 3 -3 11 -15 18 -28 10 -19 10 -27 -1 -40 -11 -14 -11
-15 5 -9 10 4 16 3 13 -2 -3 -5 1 -12 10 -15 24 -9 28 -7 14 9 -15 18 -5 20
14 3 10 -10 6 -17 -21 -35 -31 -21 -36 -22 -56 -8 -21 13 -22 12 -22 -10 0
-13 2 -21 4 -19 7 7 40 -49 35 -58 -3 -4 0 -8 7 -8 8 0 9 -3 0 -14 -8 -10 -8
-20 4 -42 8 -15 13 -30 11 -31 -6 -6 -36 9 -36 18 0 5 -9 9 -20 9 -11 0 -20 4
-20 10 0 5 -3 9 -7 8 -5 -1 -21 5 -36 12 -20 10 -39 37 -67 95 -22 44 -40 87
-40 95 -1 25 -27 52 -47 48 -10 -2 -17 -11 -15 -18 2 -8 4 -24 6 -35 1 -11 10
-37 20 -58 10 -21 16 -40 14 -43 -13 -13 -80 67 -97 117 -23 64 -47 73 -44 16
2 -41 1 -41 -59 6 -21 17 -40 39 -44 49 -4 14 -12 18 -26 15 -11 -3 -40 5 -65
19 -26 13 -48 22 -51 19 -12 -12 23 -54 59 -70 21 -10 46 -26 55 -36 16 -18
16 -19 -4 -19 -31 0 -27 -18 6 -26 15 -4 32 -9 37 -13 6 -3 17 -6 25 -6 28 -2
60 -16 55 -25 -3 -5 8 -16 25 -25 16 -8 30 -17 30 -19 0 -7 -61 7 -66 16 -3 5
-12 4 -20 -3 -11 -9 -14 -9 -14 0 0 9 -5 9 -22 0 -20 -11 -21 -12 -4 -25 10
-7 44 -16 75 -20 31 -4 66 -10 79 -15 15 -6 22 -5 22 4 0 9 3 8 9 -1 4 -8 12
-14 17 -14 34 -1 51 -52 30 -86 -9 -15 -64 -8 -86 11 -19 16 -20 16 -20 -3 0
-15 -7 -20 -26 -20 -35 0 -26 -24 10 -28 17 -2 30 -11 33 -22 5 -17 8 -17 46
-4 42 15 194 27 210 17 4 -2 3 -11 -4 -19 -6 -8 -7 -14 -2 -14 5 0 10 -7 10
-15 0 -15 -30 -14 -79 3 -27 10 -61 4 -53 -9 3 -5 0 -6 -8 -4 -7 3 -24 2 -38
-4 -21 -8 -22 -10 -6 -16 9 -4 17 -16 17 -26 0 -17 -3 -18 -20 -9 -11 6 -18
15 -15 20 3 4 -8 6 -25 4 -17 -3 -30 -1 -30 5 0 6 -9 11 -19 11 -11 0 -21 4
-23 10 -4 13 -68 32 -68 20 0 -19 13 -40 24 -40 7 0 31 -16 54 -36 23 -19 46
-33 52 -29 6 3 13 -1 16 -9 3 -9 10 -13 15 -10 5 3 9 0 9 -6 0 -6 3 -9 8 -6 4
2 16 -2 27 -10 16 -12 17 -14 2 -14 -19 0 -22 -26 -7 -50 6 -10 26 -15 60 -15
27 0 50 -3 50 -8 0 -4 3 -6 8 -5 9 3 52 -25 52 -33 0 -4 -17 -3 -37 1 -45 11
-76 -6 -49 -25 14 -10 12 -13 -10 -24 -14 -6 -30 -9 -35 -6 -5 3 -6 -1 -3 -9
4 -10 1 -16 -9 -16 -9 0 -22 -6 -29 -12 -26 -25 -98 -59 -110 -52 -6 4 -8 3
-5 -3 8 -13 -89 -57 -104 -47 -8 4 -9 3 -5 -4 4 -7 -13 -21 -43 -37 -33 -16
-49 -20 -45 -11 3 7 -2 16 -11 19 -11 5 -20 -4 -32 -28 -9 -19 -21 -35 -25
-35 -5 0 -6 -5 -2 -12 4 -7 3 -8 -4 -4 -7 4 -12 13 -12 20 0 19 53 85 68 86 7
0 11 3 8 8 -2 4 31 43 74 87 77 77 94 103 48 72 -23 -15 -40 -30 -106 -91
l-34 -31 6 35 c3 19 8 47 10 63 3 15 14 40 25 56 12 16 21 34 21 40 0 7 7 23
16 37 9 13 14 28 10 32 -4 3 -10 2 -14 -5 -4 -6 -27 -34 -52 -63 -25 -29 -57
-70 -71 -92 -17 -25 -28 -35 -31 -26 -4 12 33 101 88 212 51 101 4 52 -57 -59
-18 -33 -38 -64 -46 -68 -7 -5 -11 -13 -7 -18 3 -6 -1 -18 -10 -28 -9 -10 -19
-29 -21 -42 -11 -58 -17 -79 -23 -83 -7 -4 -6 44 1 79 3 11 8 45 11 75 6 45 5
51 -5 36 -7 -11 -14 -38 -17 -60 -6 -57 -19 -77 -19 -30 0 52 -12 132 -21 138
-4 2 -7 -61 -7 -141 0 -151 -8 -199 -19 -116 -14 105 -39 189 -83 276 -30 60
-42 54 -18 -8 9 -26 14 -49 11 -52 -3 -4 -6 -1 -6 5 0 6 -6 17 -12 24 -13 13
-26 39 -69 136 -13 30 -25 49 -27 44 -2 -6 9 -37 24 -69 41 -89 64 -144 64
-151 -1 -15 -40 44 -40 60 0 9 -5 20 -11 24 -8 4 -9 -12 -5 -56 4 -35 9 -67
12 -71 3 -5 3 -9 0 -9 -3 0 -12 17 -21 38 -9 20 -22 51 -29 67 -29 66 -60 126
-69 132 -5 3 -6 -4 -1 -18 23 -74 31 -106 28 -122 -1 -10 2 -14 9 -10 6 4 8 0
4 -10 -3 -10 -3 -17 1 -17 4 0 8 -13 8 -30 1 -17 -2 -30 -7 -30 -5 0 -9 6 -9
14 0 18 -166 176 -185 176 -11 0 -5 -14 21 -50 32 -44 69 -83 50 -52 -16 26 8
9 52 -36 51 -52 145 -181 121 -167 -9 5 -7 1 4 -12 9 -11 14 -23 10 -26 -3 -4
-2 -7 4 -7 6 0 9 -10 9 -22 -1 -13 0 -27 3 -33 23 -43 -12 -42 -41 2 -25 35
-48 50 -48 30 0 -7 16 -40 34 -74 19 -35 31 -63 27 -63 -14 0 -109 71 -166
125 -33 31 -85 68 -115 82 -30 14 -71 38 -90 53 -44 34 -76 45 -86 29 -5 -8 2
-19 17 -28 35 -23 219 -207 219 -220 0 -6 6 -10 13 -9 6 2 11 -2 10 -8 -1 -7
5 -11 15 -10 11 1 16 -5 14 -17 -2 -13 2 -17 15 -15 10 2 17 -2 15 -9 -1 -7 7
-13 19 -13 11 0 17 -4 14 -10 -3 -5 0 -10 8 -10 8 0 23 -11 33 -25 10 -14 37
-37 59 -52 84 -54 135 -98 131 -110 -3 -7 1 -13 9 -13 13 0 17 -6 14 -26 0 -4
5 -10 11 -14 8 -5 7 -9 -5 -13 -9 -4 -13 -3 -10 3 3 6 1 10 -4 10 -6 0 -11 5
-11 11 0 5 5 7 12 3 7 -4 8 -3 4 5 -4 6 -10 9 -14 7 -10 -6 -36 15 -57 47 -16
25 -75 66 -75 52 0 -3 -15 9 -32 26 -57 54 -41 1 22 -73 18 -23 34 -23 26 -2
-6 15 -4 15 16 2 29 -19 83 -86 76 -93 -3 -3 -23 12 -43 34 -38 40 -60 46 -48
14 5 -14 0 -12 -25 5 -17 13 -34 27 -37 32 -3 5 -20 19 -37 32 -26 18 -30 19
-25 5 8 -22 4 -22 -43 8 -22 14 -43 25 -48 25 -4 0 -17 8 -28 18 -11 9 -31 23
-45 31 -106 63 -179 101 -204 107 -26 6 -22 0 31 -42 34 -27 71 -56 83 -64 21
-14 31 -37 11 -25 -24 15 -180 29 -180 16 0 -9 127 -76 145 -76 6 0 16 -6 23
-13 8 -7 18 -10 23 -7 5 4 9 2 9 -3 0 -8 65 -44 85 -47 6 -1 19 4 30 11 19 11
21 10 19 -17 -1 -16 2 -26 7 -23 14 8 40 -16 32 -29 -3 -5 -1 -7 5 -3 6 3 30
-16 54 -44 24 -27 47 -50 51 -50 5 0 5 5 2 10 -16 26 13 5 54 -37 37 -40 42
-49 27 -51 -10 -2 -22 1 -26 8 -4 6 -11 10 -16 8 -5 -2 -27 2 -49 9 -22 6 -71
19 -110 29 -38 9 -98 30 -133 46 -66 31 -111 34 -52 3 19 -10 40 -24 45 -31 6
-7 26 -16 45 -19 39 -6 73 -18 145 -50 28 -13 76 -31 107 -41 32 -11 58 -23
58 -29 0 -5 20 -32 44 -60 46 -52 50 -68 13 -60 -12 2 -62 7 -112 10 -49 2
-101 7 -115 10 -14 3 -41 8 -60 11 -19 4 -44 8 -55 11 -56 11 -195 14 -195 5
0 -11 152 -58 162 -50 6 4 48 -23 48 -32 0 -4 -28 -18 -62 -30 -153 -51 -132
-68 24 -19 70 22 106 29 126 23 15 -4 33 -9 40 -11 20 -5 46 -11 53 -12 4 -1
10 -9 14 -18 5 -14 4 -15 -6 -6 -10 10 -15 9 -26 -5 -8 -9 -12 -12 -9 -6 3 7
-2 18 -12 25 -16 13 -16 13 -2 -5 14 -18 13 -19 -2 -13 -10 3 -18 2 -18 -4 0
-6 -5 -7 -10 -4 -6 4 -8 12 -4 18 3 7 -1 4 -9 -5 -8 -11 -17 -14 -23 -8 -6 6
-15 6 -24 0 -17 -11 -15 -11 51 -15 26 -1 51 -5 57 -9 6 -3 13 -2 17 4 8 14
26 13 23 -1 -2 -6 5 -13 15 -14 9 -2 15 1 11 6 -3 5 -10 7 -15 4 -5 -4 -9 -4
-9 -1 0 3 10 10 21 17 15 8 19 8 15 0 -11 -18 49 -17 72 1 8 7 12 7 12 0 0 -6
-30 -20 -68 -32 -41 -13 -83 -35 -107 -56 -38 -33 -26 -37 21 -7 28 17 114 43
114 33 0 -4 -19 -23 -41 -41 -30 -25 -61 -38 -112 -49 -39 -9 -72 -21 -75 -28
-2 -7 1 -12 8 -12 6 0 9 -4 6 -9 -5 -8 64 -43 88 -45 27 -2 8 -24 -42 -49 -54
-26 -49 -28 23 -11 17 3 16 2 -3 -7 -43 -23 -21 -26 51 -7 39 10 81 20 92 22
53 11 75 19 75 28 0 6 6 8 14 5 7 -3 19 -1 25 4 6 5 9 6 6 2 -3 -3 5 -18 17
-32 13 -14 16 -20 7 -13 -9 6 -19 9 -22 5 -4 -3 0 -11 9 -17 13 -10 13 -12 -5
-13 -11 -1 -24 3 -27 9 -4 6 -2 8 4 4 12 -7 11 12 -2 33 -7 11 -10 11 -18 -3
-5 -9 -13 -14 -17 -12 -4 3 -8 -1 -8 -9 0 -13 3 -13 17 0 25 23 36 18 14 -7
-10 -12 -13 -18 -7 -14 8 4 13 1 13 -9 0 -9 -4 -13 -10 -10 -5 3 -10 2 -10 -3
0 -6 7 -13 16 -16 8 -3 13 -2 10 3 -3 5 3 11 14 14 11 3 18 1 14 -4 -3 -5 2
-9 11 -9 10 0 13 5 9 12 -4 6 -3 8 3 5 13 -8 36 17 25 28 -4 5 -1 5 6 1 9 -6
10 -11 3 -20 -6 -7 -7 -17 -3 -21 4 -5 2 -5 -5 -2 -6 4 -13 3 -15 -2 -1 -5
-18 -12 -36 -14 -19 -3 -36 -8 -39 -11 -4 -3 -12 2 -19 12 -10 13 -12 14 -11
2 1 -8 -1 -16 -6 -17 -20 -6 -68 -35 -65 -39 2 -2 13 -5 24 -7 10 -1 24 -6 31
-10 6 -4 14 -3 18 3 4 6 11 8 16 4 5 -3 7 -10 4 -15 -4 -5 -1 -9 6 -9 8 0 8
-4 -1 -15 -19 -23 -4 -30 23 -12 21 14 28 14 51 2 15 -8 24 -10 21 -6 -3 5 4
7 15 4 11 -3 20 -9 20 -14 0 -4 9 -6 20 -4 11 2 18 0 15 -5 -3 -5 9 -8 27 -8
17 1 34 -4 36 -10 2 -7 8 -12 13 -12 6 0 7 5 3 12 -4 6 5 3 19 -8 15 -10 27
-22 27 -26 0 -5 9 -8 19 -8 11 0 23 -4 26 -10 3 -5 18 -10 32 -10 30 0 26 -9
-6 -15 -12 -2 -21 1 -21 8 0 9 -2 9 -8 1 -4 -7 -18 -11 -32 -11 -38 1 -99 -14
-106 -25 -10 -16 19 -28 35 -15 8 7 16 11 18 10 1 -2 4 -2 6 -2 1 1 16 3 32 4
17 2 30 4 30 5 0 6 84 5 103 -2 15 -5 21 -4 17 2 -3 6 -1 10 4 10 6 0 11 -4
11 -10 0 -5 7 -7 15 -4 8 4 15 1 15 -6 0 -6 -4 -8 -10 -5 -5 3 -10 1 -10 -5 0
-6 -4 -8 -10 -5 -5 3 -18 1 -28 -4 -13 -7 -22 -7 -29 0 -6 6 -19 6 -35 0 -14
-5 -29 -7 -32 -3 -4 3 -22 7 -41 9 -34 2 -46 -9 -23 -23 7 -4 8 -3 4 4 -9 16
7 15 22 0 7 -7 12 -8 12 -3 0 6 5 3 10 -5 7 -11 10 -11 10 -2 0 7 4 10 10 7 5
-3 18 -1 29 5 14 7 22 7 27 -2 4 -6 3 -8 -3 -5 -6 4 -14 0 -17 -9 -3 -8 -11
-12 -16 -9 -6 4 -16 2 -23 -3 -11 -10 -49 -19 -84 -21 -7 -1 -13 -6 -13 -12 0
-6 10 -9 23 -8 26 4 50 -9 42 -22 -4 -5 -1 -9 4 -9 14 0 14 17 0 26 -16 10 46
34 95 37 23 1 44 7 48 12 5 6 8 6 8 -1 0 -29 -57 -50 -87 -31 -9 5 -11 3 -7
-7 4 -11 0 -13 -18 -10 l-23 5 23 -10 c12 -6 30 -7 39 -4 9 4 14 2 10 -3 -3
-6 5 -10 18 -10 13 0 21 4 19 8 -3 4 0 8 5 8 6 0 11 -4 11 -10 0 -5 4 -10 10
-10 5 0 6 8 3 18 -6 14 -4 15 8 5 17 -14 54 -10 75 8 11 9 18 8 31 -2 15 -12
16 -12 8 1 -14 23 -14 37 1 37 11 0 11 -3 1 -16 -10 -12 -9 -14 6 -8 10 4 20
7 23 7 2 0 1 8 -3 17 -7 19 -5 18 17 -11 12 -16 12 -18 1 -11 -10 5 -12 4 -7
-4 4 -7 2 -10 -5 -9 -6 2 -13 -3 -15 -10 -1 -7 0 -8 3 -2 2 5 9 7 15 4 15 -9
28 17 18 36 -7 13 -4 16 15 16 13 0 21 -4 19 -8 -3 -5 -11 -5 -17 -1 -9 5 -9
3 0 -8 10 -12 10 -18 0 -29 -10 -12 -9 -12 4 -2 9 6 20 8 25 4 4 -4 2 1 -5 11
-15 19 -2 24 17 5 16 -16 15 -39 -2 -32 -7 3 -16 -2 -20 -11 -3 -10 -12 -15
-21 -11 -8 3 -15 2 -15 -3 0 -12 -50 -32 -63 -25 -7 4 -9 4 -5 -1 4 -4 -4 -14
-18 -22 -36 -18 -49 -16 -33 5 13 15 12 16 -3 3 -10 -7 -15 -17 -13 -22 6 -9
-35 -35 -50 -30 -5 1 -7 -1 -3 -5 5 -4 -1 -13 -12 -21 -11 -8 -20 -19 -20 -25
0 -16 82 0 100 19 11 12 12 14 1 8 -9 -5 -12 -4 -8 2 7 11 63 27 85 24 6 -1
12 3 12 8 0 6 16 17 35 26 33 13 37 13 56 -6 25 -25 16 -39 -10 -15 -12 11
-21 14 -26 7 -3 -6 -3 -11 1 -11 3 0 2 -6 -4 -13 -8 -10 -6 -13 7 -13 12 0 17
5 13 15 -4 12 -1 11 18 -2 19 -13 27 -14 39 -4 12 10 14 9 8 -5 -3 -10 -1 -20
6 -24 7 -4 9 -4 5 1 -7 7 17 65 26 65 7 0 1 -24 -9 -40 -6 -11 -2 -10 12 3 11
9 23 15 26 12 4 -3 5 -2 2 2 -7 9 25 42 38 39 7 -2 9 -1 5 1 -5 3 -4 12 1 22
6 11 6 22 -1 32 -8 12 -9 12 -5 -2 6 -20 -27 -66 -37 -50 -4 6 -15 11 -24 10
-12 0 -10 -3 6 -10 15 -5 20 -13 16 -21 -6 -9 -9 -9 -12 0 -2 7 -10 12 -17 12
-7 0 -16 6 -19 13 -3 6 -3 1 0 -12 4 -14 2 -21 -4 -17 -5 3 -13 -1 -16 -10 -4
-9 -9 -14 -12 -11 -3 3 -1 16 6 29 11 22 10 22 -4 4 -9 -11 -16 -14 -16 -7 0
7 -4 9 -10 6 -5 -3 -10 -1 -10 5 0 11 58 36 73 32 4 -1 7 3 7 9 0 6 7 9 15 5
9 -3 15 0 15 9 0 8 6 12 14 9 7 -3 16 2 19 10 4 9 13 13 22 10 8 -3 15 -1 15
6 0 6 5 8 10 5 6 -3 10 -1 10 5 0 6 5 8 10 5 6 -3 10 0 10 7 1 8 6 6 15 -5 7
-11 11 -25 8 -33 -4 -10 0 -12 11 -8 8 3 14 11 13 17 -1 7 6 11 16 11 11 -1
17 5 17 18 0 10 5 16 10 13 6 -4 7 -11 4 -17 -5 -7 -2 -8 7 -4 8 4 6 1 -4 -8
-11 -8 -26 -12 -35 -9 -10 4 -13 2 -8 -5 4 -7 1 -15 -8 -18 -9 -3 -13 -11 -9
-17 3 -5 1 -7 -4 -4 -6 4 -17 0 -24 -9 -11 -13 -9 -14 17 -8 27 7 28 6 14 -12
-14 -17 -13 -18 1 -7 9 7 20 9 24 5 5 -4 5 -2 2 5 -4 6 -4 13 0 16 5 2 3 2 -4
1 -7 -2 -10 3 -6 12 4 11 9 12 19 3 11 -9 18 -8 29 1 8 6 26 13 40 14 34 4 36
8 13 31 -14 14 -19 16 -16 5 2 -8 8 -19 13 -23 6 -5 2 -6 -8 -3 -10 3 -28 1
-39 -5 -11 -6 -22 -8 -25 -5 -3 3 7 10 22 16 22 8 25 13 16 24 -9 11 -9 15 0
18 7 2 6 8 -5 17 -14 12 -16 11 -10 -5 7 -19 7 -19 -14 0 -20 17 -27 15 -23
-6 0 -5 -4 -8 -9 -8 -11 0 -14 30 -2 31 4 0 18 2 30 5 17 3 30 -3 44 -21 11
-14 24 -22 30 -19 7 5 8 2 3 -6 -6 -10 -4 -12 8 -7 11 4 14 2 10 -9 -4 -10 3
-14 26 -14 17 0 31 -5 31 -11 0 -5 4 -7 10 -4 5 3 7 0 4 -8 -3 -8 0 -18 6 -22
8 -5 8 -10 0 -20 -9 -10 -6 -16 9 -25 23 -12 28 -30 9 -30 -6 0 -8 3 -5 7 4 3
-1 12 -11 19 -19 13 -87 12 -100 -1 -4 -5 1 -5 10 -2 11 4 22 0 28 -11 10 -15
11 -15 6 3 l-6 20 16 -20 c8 -11 22 -19 31 -17 8 2 12 -1 9 -6 -3 -5 6 -8 19
-6 14 1 27 -2 30 -6 3 -5 12 -7 20 -3 8 3 15 1 15 -4 0 -5 9 -9 20 -10 20 -2
26 8 13 21 -14 14 -11 36 5 37 54 4 76 10 94 26 17 15 21 15 28 3 12 -18 12
-3 1 25 -6 14 -3 24 8 33 9 8 10 10 2 6 -9 -4 -12 -2 -9 6 6 19 -24 48 -42 40
-24 -10 -65 -5 -63 8 2 7 -2 12 -8 12 -6 0 -8 -8 -4 -19 5 -15 1 -18 -20 -13
-14 2 -25 9 -25 14 0 5 -5 6 -12 2 -7 -5 -9 -2 -6 8 4 8 0 15 -8 15 -7 0 -15
-6 -18 -13 -4 -10 -11 -10 -36 2 -27 14 -60 54 -45 54 4 0 -1 7 -9 16 -9 8
-16 23 -16 32 0 14 2 14 9 3 7 -10 9 -7 8 12 -1 17 -6 22 -13 16 -15 -12 -15
21 0 40 8 11 8 13 -1 8 -14 -9 -6 31 11 52 8 11 8 13 -2 7 -15 -9 16 75 32 86
7 5 7 8 -2 8 -10 0 -10 4 0 23 7 12 17 25 21 28 5 3 8 8 7 10 -1 2 3 17 9 32
6 15 13 40 16 55 3 15 7 40 10 56 5 26 4 28 -9 16 -17 -13 9 51 59 150 14 27
25 52 25 56 0 18 -38 -30 -64 -80 -16 -31 -33 -56 -38 -56 -4 0 -8 -9 -8 -20
0 -11 -4 -20 -9 -20 -5 0 -12 -8 -16 -19 -3 -10 -15 -29 -27 -42 -25 -28 -23
-23 20 59 18 35 40 66 48 69 12 4 13 8 3 14 -9 5 -10 11 -2 21 10 13 43 109
43 125 0 4 -8 -8 -19 -27 -10 -19 -17 -38 -14 -42 2 -5 -1 -8 -6 -8 -6 0 -11
-6 -11 -14 0 -8 -9 -24 -20 -37 -19 -24 -19 -24 -1 29 11 28 18 52 16 52 -2 0
5 25 16 57 10 31 17 58 15 60 -2 3 -14 -9 -27 -26 -12 -17 -27 -27 -32 -24 -6
4 -8 0 -4 -11 4 -10 3 -15 -3 -11 -6 3 -13 -2 -17 -12 -11 -29 -55 -93 -64
-93 -5 0 2 19 14 42 42 78 72 118 85 113 6 -2 12 -1 13 3 6 68 7 84 2 72 -3
-8 -16 -28 -27 -45 -12 -16 -27 -39 -34 -50 -7 -11 -22 -35 -33 -52 -24 -38
-42 -35 -34 5 4 15 8 41 11 57 7 39 18 77 42 145 11 30 23 68 27 85 l7 30 -22
-25 c-12 -14 -30 -41 -40 -61 -19 -36 -50 -69 -50 -53 0 5 4 24 9 42 7 22 7
32 0 30 -6 -2 -9 -6 -7 -9 2 -3 -2 -12 -8 -20 -7 -8 -15 -28 -18 -45 -8 -36
-39 -69 -56 -59 -5 3 -8 11 -4 16 3 5 10 6 16 3 7 -4 8 -2 4 4 -4 6 2 20 13
31 16 16 17 21 5 25 -7 3 -13 2 -12 -2 3 -16 -15 -41 -25 -35 -5 3 -7 1 -3 -5
12 -19 -15 -25 -32 -7 -13 14 -14 16 -2 11 11 -6 10 -4 -1 6 -15 12 -15 17 -3
41 8 15 18 27 22 27 4 0 8 12 9 27 0 15 6 29 12 31 6 2 11 14 11 27 0 13 4 26
9 29 5 3 12 22 15 41 5 22 11 33 18 29 7 -4 8 -3 4 4 -4 7 -11 12 -16 12 -9 0
-45 -79 -43 -98 0 -6 -3 -12 -9 -12 -5 0 -7 -3 -5 -8 8 -13 -12 -54 -24 -47
-5 4 -19 -1 -30 -10 -17 -16 -17 -19 -3 -30 15 -10 10 -22 -40 -105 -31 -51
-56 -95 -56 -97 0 -3 -7 -11 -15 -20 -14 -14 -15 -13 -11 8 8 41 18 59 30 52
6 -3 3 3 -7 14 -17 19 -17 21 -1 27 9 4 19 4 22 1 3 -3 0 -5 -6 -5 -7 0 -12
-5 -12 -11 0 -8 5 -7 15 1 9 7 14 19 11 27 -3 8 -2 12 3 9 5 -3 9 6 9 19 0 27
-16 33 -36 13 -7 -7 -12 -8 -12 -2 0 6 5 15 11 21 6 6 12 17 13 24 2 8 8 28
15 44 6 17 10 32 9 35 -5 11 46 59 55 53 6 -3 7 -1 3 6 -4 6 -1 17 6 25 30 32
71 86 83 110 l14 26 -24 -17 c-14 -10 -25 -21 -25 -25 0 -4 -6 -13 -13 -20 -7
-7 -23 -26 -36 -43 -15 -19 -21 -23 -17 -10 8 19 14 42 15 57 1 4 15 22 31 40
40 43 38 55 -4 29 -40 -25 -47 -26 -40 -6 4 8 10 13 14 10 5 -3 6 3 4 13 -4
14 2 18 41 19 63 3 80 17 30 24 -28 4 -35 7 -22 12 44 17 53 20 60 18 5 -1 5
3 2 9 -4 6 -13 9 -20 6 -7 -2 -18 1 -25 7 -10 9 -11 9 -6 0 4 -8 1 -13 -8 -14
-20 -2 -25 -3 -56 -16 -57 -23 -70 -25 -64 -8 4 9 9 14 11 11 6 -6 12 -1 77
56 27 24 46 37 42 31 -4 -7 -2 -13 3 -13 6 0 11 7 11 15 0 8 7 15 15 15 9 0
12 6 8 16 -3 8 -12 13 -19 10 -43 -18 -49 -18 -29 -1 11 9 19 21 17 26 -1 6 5
6 17 0 14 -8 21 -7 25 2 2 6 4 1 3 -13 -2 -25 21 -35 35 -15 4 5 8 0 8 -13 0
-13 4 -21 9 -17 6 3 8 13 6 23 -2 13 3 18 19 18 23 0 29 -27 12 -56 -6 -10 -2
-8 12 3 11 11 18 24 16 31 -3 7 2 19 11 26 10 8 15 9 15 1 0 -6 -4 -11 -10
-11 -5 0 -10 -4 -10 -9 0 -6 9 -9 20 -8 13 1 19 6 15 15 -2 7 -1 11 4 7 5 -3
11 -1 13 5 2 6 8 6 18 0 13 -8 12 -10 -2 -10 -10 0 -18 -4 -18 -10 0 -5 9 -10
20 -10 16 0 19 -6 16 -30 -2 -16 0 -31 5 -32 4 -2 10 -22 12 -45 4 -41 3 -42
-22 -39 -14 2 -38 9 -54 16 -31 15 -46 7 -27 -15 13 -16 10 -18 -35 -16 -16 1
-42 -2 -57 -6 -34 -10 -24 -33 16 -37 16 -2 31 -7 34 -12 9 -12 22 -11 47 3
11 6 34 13 50 14 25 3 30 1 28 -16 -1 -11 0 -26 3 -34 4 -11 8 -10 20 5 9 10
13 13 9 7 -3 -7 -3 -13 2 -13 4 0 9 -15 11 -33 1 -17 3 -45 5 -62 1 -16 10
-38 20 -48 14 -14 16 -22 7 -32 -6 -8 -7 -14 -1 -17 5 -1 12 -28 16 -58 4 -30
9 -67 10 -82 3 -22 0 -26 -13 -22 -12 4 -11 2 3 -8 20 -13 35 -45 16 -34 -5 4
-13 1 -17 -5 -4 -8 -3 -9 5 -5 13 9 19 -5 25 -61 2 -23 7 -46 10 -52 4 -5 1
-13 -5 -17 -8 -5 -9 -3 -4 7 5 8 4 10 0 6 -14 -12 -14 -36 -1 -31 6 2 12 -5
13 -16 1 -11 -3 -20 -8 -20 -6 0 -7 4 -4 10 3 5 1 10 -5 10 -8 0 -9 -7 -5 -17
4 -10 8 -35 9 -55 0 -21 3 -38 6 -38 3 0 5 -22 5 -50 0 -42 3 -51 24 -60 13
-6 21 -13 18 -17 -4 -3 -13 0 -22 7 -14 11 -15 8 -11 -31 2 -24 5 -44 6 -44 1
0 3 -21 6 -47 2 -33 0 -48 -9 -48 -8 0 -9 -3 -1 -8 16 -11 25 -42 12 -42 -7 0
-7 -4 -1 -12 9 -12 25 -60 27 -82 1 -8 22 -15 53 -18 7 -1 10 -5 7 -10 -6 -10
10 -11 20 -1 10 10 66 11 72 1 3 -4 11 -8 17 -8 7 0 6 4 -3 10 -12 8 -8 10 15
11 17 0 41 3 55 5 14 2 36 5 50 8 14 2 31 -2 39 -8 11 -8 13 -8 8 1 -4 6 -3
14 3 18 5 3 10 0 10 -7 0 -8 3 -9 8 -3 4 6 16 11 27 11 11 1 32 4 48 7 17 4
27 1 27 -6 0 -9 2 -9 8 0 4 6 25 12 47 14 22 1 48 6 58 11 9 5 17 5 17 0 0 -4
9 -8 19 -8 11 0 17 4 14 8 -2 5 16 7 41 5 24 -2 43 0 40 5 -3 4 14 9 38 9 24
1 55 2 71 3 15 0 27 4 27 7 0 4 17 7 38 7 20 0 39 1 42 2 3 1 19 3 35 5 17 2
48 7 70 10 22 4 56 8 75 10 19 2 53 7 75 10 22 3 58 7 80 10 38 5 91 11 160
21 17 2 55 6 85 9 30 3 71 8 90 10 19 3 54 7 78 10 104 13 126 17 147 31 26
17 43 51 39 79 -2 11 -6 49 -9 85 -4 36 -8 72 -10 80 -3 8 -7 42 -10 75 -7 72
-14 131 -20 165 -2 14 -7 52 -10 85 -6 64 -12 119 -21 175 -2 19 -7 55 -9 79
-2 24 -7 60 -9 80 -3 20 -8 61 -11 91 -4 30 -8 66 -10 80 -2 14 -7 50 -10 80
-3 30 -7 71 -10 90 -11 86 -14 118 -20 170 -3 30 -8 73 -12 95 -3 22 -7 51 -8
65 -14 149 -25 232 -31 242 -3 5 1 8 8 8 8 0 9 3 3 8 -12 9 -15 19 -17 82 -2
28 -6 50 -10 50 -5 0 -8 9 -8 20 0 13 -7 20 -19 20 -10 0 -24 6 -30 14 -7 8
-26 13 -46 11 -20 -1 -33 0 -30 3 3 3 -1 12 -7 20 -7 8 -13 20 -15 28 -2 8 -4
20 -6 27 -4 21 -33 57 -40 50 -4 -3 -1 -13 5 -22 11 -14 10 -14 -7 0 -11 9
-27 14 -35 12 -11 -3 -11 -1 2 10 10 8 15 17 11 21 -3 3 -15 -1 -25 -11 -10
-9 -18 -11 -18 -6 0 6 8 14 18 18 29 13 42 14 36 3 -5 -7 -2 -8 6 -3 8 5 11 4
7 -2 -3 -5 0 -10 7 -10 10 0 12 10 9 31 -6 38 -13 47 -13 17 0 -13 -4 -19 -10
-16 -6 4 -8 16 -4 27 4 14 2 18 -5 14 -6 -4 -11 -13 -11 -19 0 -7 -9 -18 -19
-24 -16 -10 -20 -9 -25 3 -3 9 -1 12 4 9 6 -3 10 -1 10 5 0 6 5 8 10 5 16 -10
11 1 -7 16 -11 10 -14 10 -9 2 4 -8 1 -13 -8 -13 -19 0 -20 11 -3 29 6 8 8 11
2 9 -13 -7 -36 17 -27 28 4 4 1 4 -6 0 -7 -4 -10 -11 -8 -14 2 -4 -9 -15 -25
-25 -30 -17 -30 -17 -24 6 l6 22 -14 -23 c-7 -12 -15 -21 -18 -18 -2 3 -12 -8
-21 -24 -12 -21 -13 -32 -6 -36 7 -5 8 -2 3 7 -7 12 -5 12 6 1 12 -11 12 -14
-1 -22 -13 -9 -13 -11 0 -20 9 -6 10 -10 3 -10 -7 0 -10 -9 -8 -21 3 -12 1
-19 -2 -15 -4 4 -8 17 -9 29 -3 30 -12 65 -19 77 -4 6 -1 18 7 27 9 12 9 15 1
9 -9 -5 -13 0 -14 16 0 13 -3 32 -5 43 -8 34 -14 68 -19 119 -3 28 -7 57 -10
65 -4 15 -10 61 -20 156 -5 47 -14 112 -20 140 -2 11 -7 47 -11 79 -3 33 -8
69 -10 80 -3 12 -7 46 -10 76 -8 86 -5 83 -82 76 -37 -4 -83 -9 -102 -11 -70
-9 -116 -14 -180 -20 -36 -4 -72 -8 -81 -11 -9 -2 -40 -7 -70 -9 -55 -5 -131
-13 -184 -20 -68 -9 -123 -15 -170 -20 -27 -3 -61 -8 -75 -10 -14 -2 -52 -7
-85 -11 -74 -8 -73 -7 -70 -41 9 -85 17 -149 21 -155 2 -4 -6 -14 -18 -22 -12
-9 -18 -16 -12 -16 5 0 15 5 22 12 9 9 12 7 12 -12 -1 -36 7 -90 14 -97 3 -3
1 -13 -6 -20 -9 -11 -9 -17 3 -24 12 -7 12 -9 -1 -9 -12 0 -13 -2 -1 -9 8 -5
12 -19 9 -35 -3 -14 -2 -26 3 -26 4 0 7 -15 7 -32 -1 -18 2 -40 5 -48 3 -8 8
-39 11 -69 2 -29 7 -56 10 -59 3 -3 1 -11 -5 -18 -7 -8 -7 -14 1 -19 5 -3 10
-11 10 -16 0 -6 -4 -7 -10 -4 -5 3 -10 2 -10 -4 0 -5 5 -11 11 -13 7 -2 14
-19 16 -38 2 -19 5 -51 7 -70 3 -19 5 -37 6 -40 1 -3 2 -9 0 -15 -1 -5 1 -24
5 -43 6 -32 7 -33 54 -31 26 1 53 -1 61 -6 9 -6 11 -4 5 4 -5 9 0 12 16 11 13
-1 26 -1 29 0 15 7 49 6 44 -2 -3 -5 -11 -7 -17 -5 -13 4 -36 -21 -37 -38 0
-5 5 -3 10 5 7 11 10 7 10 -17 0 -17 6 -34 13 -36 6 -3 2 -6 -11 -6 -13 -1
-32 -6 -43 -11 -15 -8 -19 -7 -19 5 0 8 -8 15 -17 15 -9 0 -14 3 -10 6 6 6
-16 34 -27 34 -2 0 -10 -15 -16 -34 -13 -40 -31 -58 -63 -62 -12 -2 -32 -5
-45 -8 -20 -4 -22 -2 -16 17 5 12 8 34 8 50 0 15 3 27 7 27 4 0 7 6 6 13 -1
41 5 57 21 58 9 0 12 3 6 5 -7 3 -10 13 -7 22 2 10 -5 26 -17 37 -12 11 -20
15 -19 10 6 -20 -25 -86 -38 -81 -7 3 -13 1 -13 -4 0 -6 3 -10 8 -10 4 0 8
-13 8 -30 2 -36 -2 -37 -26 -7 -11 12 -17 30 -14 41 4 12 2 16 -5 12 -7 -5
-11 1 -11 14 0 14 4 19 13 14 7 -5 6 0 -3 11 -8 10 -15 19 -14 19 10 12 23 47
16 42 -6 -3 -12 3 -14 15 l-3 21 -20 -23 c-11 -12 -14 -19 -7 -15 11 7 12 4 2
-13 l-11 -22 -20 25 c-10 13 -19 29 -19 35 0 6 -4 11 -10 11 -5 0 -7 6 -4 14
6 16 -29 40 -41 28 -5 -4 -6 0 -2 9 4 11 0 16 -11 15 -9 0 -16 4 -15 11 1 6
-5 10 -15 9 -12 -2 -16 -10 -13 -27 1 -13 6 -26 11 -29 15 -11 29 -48 24 -67
-3 -12 -1 -24 5 -27 6 -4 11 -18 11 -31 0 -13 5 -27 10 -30 7 -4 9 3 5 22 l-6
28 16 -25 c15 -23 15 -23 10 -3 -9 32 21 19 40 -17 17 -33 10 -43 -19 -28 -31
17 -76 20 -76 5 1 -17 25 -47 39 -47 6 0 11 -5 11 -11 0 -8 4 -8 14 0 10 8 16
9 21 1 3 -6 11 -7 17 -4 7 4 8 2 4 -4 -4 -7 -2 -13 3 -13 6 -1 16 -3 21 -4 6
-1 15 -3 20 -4 6 0 10 -10 10 -21 0 -11 5 -20 12 -20 6 0 8 -3 5 -7 -4 -3 -2
-12 4 -19 7 -8 7 -14 -1 -19 -5 -3 -10 -5 -11 -3 0 2 -2 12 -4 22 -2 10 -9 23
-16 27 -16 9 -41 -9 -33 -23 4 -7 0 -7 -12 0 -11 5 -25 7 -31 5 -7 -3 -13 0
-13 7 0 6 -4 9 -10 5 -12 -8 -50 16 -50 32 0 7 -4 13 -9 13 -16 0 -22 32 -9
48 11 13 10 15 -4 9 -10 -3 -18 -2 -18 3 0 18 -2 25 -11 42 -6 10 -5 19 1 23
5 3 10 1 10 -6 0 -7 3 -9 7 -5 5 4 0 14 -10 21 -10 7 -14 16 -9 19 7 4 6 19
-1 42 -8 28 -8 37 2 44 16 9 6 30 -14 30 -7 0 -16 7 -19 16 -9 23 -8 26 7 19
6 -4 4 0 -5 8 -10 8 -18 23 -18 33 0 16 2 17 10 4 5 -8 10 -12 10 -7 0 4 -5
16 -12 26 -7 11 -8 26 -3 37 12 27 13 64 1 57 -5 -4 -7 1 -3 10 10 25 -2 50
-18 37 -9 -7 -16 -6 -25 5 -10 12 -10 15 4 15 11 0 14 5 10 12 -5 8 -1 9 12 5
18 -7 18 -6 2 7 -19 14 -24 36 -10 36 5 0 16 16 25 36 10 19 13 33 7 29 -6 -3
-10 3 -10 15 0 12 5 18 10 15 6 -3 10 -2 10 3 0 9 -30 26 -35 20 -13 -15 -33
-67 -28 -72 4 -3 1 -6 -5 -6 -18 0 -52 -32 -45 -43 3 -5 -5 -4 -17 3 -15 8
-20 8 -16 1 11 -17 -20 -13 -35 5 -16 19 -21 47 -7 38 6 -4 5 3 -1 15 -7 12
-9 27 -4 34 4 6 8 38 9 71 2 36 8 62 16 67 10 7 9 9 -4 9 -10 0 -18 7 -18 15
0 8 -4 15 -10 15 -14 0 -21 -39 -20 -117 0 -18 -4 -33 -10 -33 -5 0 -10 7 -10
15 0 8 -4 15 -10 15 -5 0 -7 7 -4 15 3 8 -3 27 -15 43 -22 32 -26 64 -15 131
7 43 6 44 -17 38 -22 -6 -26 -1 -43 53 -11 33 -31 73 -45 90 -25 29 -27 30
-49 12 -13 -10 -28 -38 -35 -66 -6 -27 -18 -51 -26 -54 -8 -3 -12 1 -9 9 3 8
1 25 -5 39 -5 14 -9 35 -8 48 0 12 -11 45 -26 73 -17 33 -26 66 -26 95 0 31
-4 44 -12 40 -16 -6 -40 23 -55 68 -10 32 -15 36 -47 36 -38 0 -36 6 -17 -80
3 -14 7 -40 9 -59 3 -32 2 -33 -25 -27 -37 7 -45 -6 -25 -44 8 -16 13 -30 10
-30 -8 0 14 -22 42 -41 20 -14 21 -17 8 -42 -8 -15 -10 -27 -4 -27 6 0 8 -4 4
-9 -3 -5 -1 -12 5 -16 6 -4 8 -10 5 -15 -3 -5 -1 -11 4 -15 15 -8 2 -33 -15
-31 -8 1 -14 5 -14 9 0 4 -6 20 -14 35 -9 17 -11 35 -5 49 5 13 4 25 -2 28 -5
4 -7 10 -4 15 3 4 -2 13 -10 20 -11 10 -18 9 -31 -5 -16 -16 -18 -16 -27 2 -6
10 -18 23 -27 30 -10 7 -20 25 -23 41 -3 16 -14 37 -23 47 -10 10 -28 38 -41
64 -44 86 -54 101 -69 101 -7 0 -15 -6 -15 -12z m576 -328 c4 -6 8 -27 10 -47
2 -20 8 -39 13 -42 5 -3 12 -16 16 -28 7 -21 5 -22 -16 -14 -17 6 -26 4 -36
-8 -10 -12 -12 -12 -6 -1 7 13 5 13 -9 1 -19 -15 -23 -1 -8 28 6 10 11 41 12
69 2 50 11 64 24 42z m-131 -105 c4 -16 3 -24 0 -17 -3 6 -9 10 -14 7 -4 -3
-14 2 -21 11 -15 19 -21 47 -8 38 5 -3 9 1 9 8 0 23 28 -15 34 -47z m-18 -81
c-3 -8 -2 -12 4 -9 11 7 51 -35 44 -47 -3 -4 -1 -8 4 -8 6 0 13 -7 16 -16 4
-12 2 -15 -9 -10 -11 4 -9 -3 6 -23 12 -16 19 -35 16 -43 -3 -8 -10 0 -17 19
-6 17 -18 34 -27 37 -8 4 -13 13 -9 21 3 8 2 14 -2 14 -19 -3 -23 2 -12 16 11
13 10 14 -5 9 -12 -5 -16 -4 -11 4 3 6 2 13 -4 17 -14 8 -13 35 1 35 6 0 8 -7
5 -16z m165 3 c25 -20 26 -41 3 -63 -13 -12 -25 -19 -29 -16 -3 4 -3 -2 1 -12
5 -14 4 -17 -4 -12 -7 4 -12 15 -12 25 0 10 -3 21 -7 25 -13 13 -11 36 3 36 8
0 13 3 13 8 -4 25 7 28 32 9z m19 -67 c-12 -8 -12 -10 3 -16 9 -3 14 -10 11
-16 -3 -5 -12 -4 -22 4 -9 7 -13 8 -9 2 3 -6 0 -20 -8 -30 -19 -26 -19 -1 0
36 9 17 21 30 28 30 8 0 7 -4 -3 -10z m-3 -54 c-4 -11 0 -13 15 -11 11 3 23 7
27 11 3 4 -2 4 -11 1 -10 -4 -18 -2 -18 3 0 12 20 13 39 1 9 -6 11 -16 7 -27
-5 -14 -9 -15 -15 -6 -4 7 -15 10 -24 6 -9 -3 -15 -10 -12 -14 3 -4 -2 -13
-10 -20 -13 -10 -15 -8 -15 13 0 27 9 57 17 57 3 0 3 -6 0 -14z m37 -50 c-3
-8 -1 -17 5 -21 6 -3 9 0 5 8 -3 8 2 20 10 27 13 10 17 9 25 -11 5 -13 7 -27
4 -31 -2 -5 1 -8 6 -8 6 0 11 -5 11 -12 0 -6 -7 -4 -18 5 -10 10 -21 14 -25
11 -3 -3 -12 -2 -19 2 -7 5 -16 9 -20 9 -12 0 -22 15 -10 15 7 0 12 7 12 16 0
8 4 13 10 9 5 -3 7 -12 4 -19z m-265 -9 c8 -10 7 -14 -2 -14 -8 0 -14 6 -14
14 0 7 1 13 2 13 2 0 8 -6 14 -13z m234 -60 c4 3 7 -1 7 -10 0 -9 3 -16 8 -16
20 3 33 -2 27 -11 -4 -6 -3 -10 2 -9 21 4 33 -2 33 -17 0 -8 -4 -13 -9 -9 -5
3 -12 1 -15 -4 -4 -5 2 -8 11 -7 9 2 19 8 21 14 3 9 7 8 17 -1 15 -16 8 -70
-8 -60 -6 3 -7 1 -3 -6 10 -16 26 -4 26 20 0 10 5 19 11 19 5 0 7 -4 4 -10 -3
-5 -2 -10 4 -10 18 0 23 -39 7 -61 l-15 -22 -25 28 c-14 15 -26 33 -26 38 0 6
-3 8 -6 5 -5 -6 -20 6 -56 48 -24 28 -55 102 -36 86 8 -6 18 -9 21 -5z m217
-243 c0 -3 -7 -1 -15 6 -8 7 -15 17 -15 22 0 5 7 3 15 -6 8 -8 15 -18 15 -22z
m20 -92 c22 -5 30 -23 19 -43 -6 -12 -5 -20 3 -25 6 -4 8 -3 4 4 -3 6 -2 13 4
17 5 3 10 -1 10 -10 0 -9 4 -13 10 -10 6 3 7 -1 4 -9 -3 -9 -1 -16 6 -16 6 0
8 -4 5 -10 -3 -5 -1 -10 4 -10 6 0 11 -7 11 -15 0 -8 -4 -15 -10 -15 -5 0 -10
6 -10 14 0 8 -7 17 -16 20 -9 4 -14 9 -11 12 2 3 -14 23 -37 46 -22 22 -35 37
-28 33 6 -3 12 -2 12 3 0 6 -7 13 -16 16 -8 3 -12 10 -9 16 3 5 1 10 -4 10 -6
0 -11 8 -11 17 0 12 6 9 23 -13 12 -16 29 -30 37 -32z m-162 19 c7 -1 10 -6 7
-11 -4 -6 -10 -8 -15 -5 -5 3 -15 -4 -24 -16 -8 -12 -19 -18 -26 -14 -7 5 -8
11 -1 19 7 9 7 16 -2 25 -9 10 -6 11 18 7 17 -2 36 -5 43 -5z m1958 -26 c1
-13 -2 -28 -8 -31 -6 -4 -8 -2 -5 4 10 15 -3 43 -17 35 -6 -4 -5 1 3 10 16 21
23 16 27 -18z m-51 5 c-3 -5 1 -10 9 -10 9 0 16 -4 16 -10 0 -5 -4 -9 -9 -7
-5 1 -17 -7 -25 -18 -13 -16 -15 -17 -10 -2 5 13 2 16 -10 11 -12 -4 -13 -10
-6 -24 13 -24 13 -30 -2 -30 -6 0 -8 3 -5 7 4 3 0 17 -8 29 -13 20 -13 25 1
39 9 8 19 13 24 10 5 -3 11 -1 15 5 3 5 8 10 11 10 3 0 2 -4 -1 -10z m62 -62
c-3 -8 -6 -5 -6 6 -1 11 2 17 5 13 3 -3 4 -12 1 -19z m-1842 -38 c3 -5 1 -10
-4 -10 -6 0 -11 5 -11 10 0 6 2 10 4 10 3 0 8 -4 11 -10z m1677 -14 c7 4 8 2
4 -5 -9 -13 -26 -5 -25 12 0 9 2 8 6 -1 2 -6 10 -9 15 -6z m-111 -16 c6 0 8 4
5 8 -3 5 1 9 8 9 8 0 14 -11 14 -24 0 -19 -3 -21 -14 -12 -12 9 -13 9 -9 -4
12 -29 -11 -26 -38 5 -24 27 -25 30 -7 25 11 -3 20 0 21 6 0 8 2 8 6 0 2 -7 9
-13 14 -13z m54 -6 c13 -5 14 -8 3 -15 -10 -7 -10 -9 0 -9 16 0 16 -36 0 -46
-11 -7 -33 -9 -68 -5 -5 1 -10 9 -10 18 0 9 3 13 6 10 4 -4 20 3 36 15 23 16
27 23 16 29 -16 10 -6 12 17 3z m-1581 -46 c-3 -13 -6 -29 -6 -35 -1 -7 -5
-13 -10 -13 -5 0 -7 -4 -3 -10 3 -5 16 1 28 13 20 20 22 20 25 4 2 -9 7 -15
12 -12 4 3 13 -2 20 -10 10 -12 10 -18 0 -30 -18 -21 -26 -10 -9 12 7 10 9 15
4 10 -4 -4 -16 0 -25 8 -15 14 -18 13 -30 -10 -16 -30 -30 -32 -30 -5 0 10
-10 28 -22 40 -21 19 -21 21 -4 38 17 16 18 16 12 -5 -4 -12 -2 -24 5 -29 9
-5 10 -2 6 9 -4 12 -1 17 11 18 12 0 13 2 3 6 -11 5 -11 7 0 14 19 12 19 12
13 -13z m1907 -11 c-10 -9 -11 -8 -5 6 3 10 9 15 12 12 3 -3 0 -11 -7 -18z
m29 -7 c0 -5 -5 -10 -11 -10 -5 0 -7 5 -4 10 3 6 8 10 11 10 2 0 4 -4 4 -10z
m-1895 -59 c7 -12 -12 -24 -25 -16 -11 7 -4 25 10 25 5 0 11 -4 15 -9z m68
-25 c24 -19 22 -39 -4 -31 -19 6 -20 3 -15 -36 3 -25 13 -49 23 -58 11 -9 25
-29 31 -44 14 -33 15 -37 3 -37 -11 0 -61 50 -61 61 0 15 27 -2 38 -24 6 -12
11 -16 11 -9 1 13 -30 47 -49 54 -7 2 -12 16 -12 31 0 15 -4 30 -9 33 -5 3 0
15 11 26 11 12 18 24 15 26 -2 3 -13 -6 -24 -19 -24 -28 -28 -13 -5 19 17 25
23 26 47 8z m-71 -6 c6 0 7 -7 4 -16 -4 -9 -2 -22 4 -29 17 -20 20 -52 5 -52
-15 0 -67 92 -57 101 3 4 12 4 20 1 7 -3 18 -5 24 -5z m-254 -40 c7 0 12 -7
12 -16 0 -11 -6 -14 -22 -8 -25 7 -38 22 -38 43 0 11 4 11 18 -2 10 -10 24
-17 30 -17z m378 -32 c3 -12 13 -28 21 -36 8 -8 12 -21 9 -28 -3 -7 2 -17 11
-22 8 -5 14 -15 11 -23 -5 -16 -58 69 -58 94 0 10 -4 17 -10 17 -5 0 -10 5
-10 10 0 19 19 10 26 -12z m-46 -23 c0 -8 -2 -15 -4 -15 -2 0 -6 7 -10 15 -3
8 -1 15 4 15 6 0 10 -7 10 -15z m-319 -145 c1 -8 1 -18 0 -22 -2 -13 16 -9 29
7 11 13 15 12 30 -8 9 -12 25 -37 34 -55 l17 -34 -23 7 c-13 4 -36 21 -51 38
-16 18 -26 26 -22 20 3 -8 0 -13 -8 -13 -8 0 -21 15 -28 33 -7 17 -14 35 -16
39 -3 4 5 6 16 5 12 -1 22 -8 22 -17z m197 6 c7 -4 12 -2 13 6 0 10 2 10 6 -1
5 -11 7 -11 14 0 7 11 9 9 9 -5 0 -20 0 -20 14 0 12 15 17 17 27 7 7 -7 21
-13 31 -13 24 0 31 -20 18 -54 -7 -20 -7 -25 2 -20 7 5 8 3 3 -6 -11 -18 46
-62 63 -48 8 7 12 7 12 -2 0 -8 3 -10 7 -7 9 10 -28 48 -40 40 -6 -4 -8 0 -4
11 4 10 3 15 -3 11 -6 -3 -10 -1 -10 5 0 6 -4 8 -10 5 -5 -3 -10 1 -10 9 0 9
9 16 21 16 11 0 17 -4 14 -10 -3 -5 -2 -10 4 -10 5 0 11 5 13 11 2 6 12 1 23
-11 12 -13 14 -20 6 -18 -7 2 -16 -3 -18 -9 -3 -7 3 -13 13 -13 9 0 14 -3 11
-6 -3 -4 -2 -15 3 -25 7 -12 7 -20 0 -24 -5 -3 -10 -11 -10 -16 0 -6 4 -8 8
-5 5 3 9 0 9 -7 1 -7 4 -30 7 -52 3 -22 9 -60 12 -85 3 -24 8 -48 10 -52 3 -4
-2 -5 -10 -2 -9 3 -16 11 -16 18 0 6 -9 17 -20 24 -11 7 -20 21 -20 33 0 11
-4 18 -9 15 -5 -3 -14 1 -21 9 -9 11 -9 15 -1 15 8 0 9 5 2 19 -6 10 -8 21 -4
24 3 4 1 13 -5 20 -7 8 -9 17 -5 21 4 4 1 11 -7 16 -8 5 -15 17 -15 27 -1 25
-16 48 -38 56 -11 4 -15 12 -11 19 6 9 9 9 12 0 2 -7 9 -12 15 -12 6 0 3 8 -6
18 -17 16 -19 16 -28 -1 -6 -10 -15 -14 -22 -10 -7 4 -5 -2 3 -12 8 -10 10
-16 4 -12 -7 4 -14 0 -17 -8 -4 -9 -1 -12 8 -9 15 6 50 -50 40 -66 -3 -5 0
-12 5 -15 7 -5 5 -12 -7 -21 -10 -7 -13 -14 -7 -14 13 0 47 -70 34 -70 -5 0
-15 7 -22 16 -7 8 -21 23 -32 32 -72 66 -91 86 -88 99 2 8 -4 20 -12 26 -8 7
-18 28 -21 47 -5 34 -5 35 9 10 8 -14 12 -29 8 -35 -3 -5 4 -2 15 8 21 18 38
23 28 8 -10 -18 13 -21 26 -3 7 9 9 14 5 10 -5 -4 -15 -3 -23 3 -10 9 -17 8
-30 -2 -15 -12 -16 -12 -10 4 4 11 3 16 -3 12 -6 -3 -10 1 -10 9 0 9 -4 16 -9
16 -13 0 -20 39 -8 43 16 5 40 2 55 -7z m166 -101 c3 -8 9 -14 13 -13 4 2 9 0
11 -4 3 -11 -5 -10 -28 4 -21 13 -27 28 -11 28 5 0 11 -7 15 -15z m-1394 -15
c0 -5 -2 -10 -4 -10 -3 0 -8 5 -11 10 -3 6 -1 10 4 10 6 0 11 -4 11 -10z m164
-146 c3 -8 2 -12 -4 -9 -6 3 -10 10 -10 16 0 14 7 11 14 -7z m924 -9 c-2 -1
-13 -8 -25 -14 -19 -10 -23 -9 -23 3 0 10 6 13 17 9 11 -4 14 -3 9 5 -5 8 -2
10 9 6 9 -4 15 -8 13 -9z m-838 -5 c0 -5 -2 -10 -4 -10 -3 0 -8 5 -11 10 -3 6
-1 10 4 10 6 0 11 -4 11 -10z m292 -43 c-7 -8 -9 -17 -5 -20 3 -4 1 -7 -5 -7
-7 0 -12 2 -12 5 0 10 24 44 29 40 2 -3 -1 -11 -7 -18z m688 13 c0 -5 -5 -10
-11 -10 -5 0 -7 5 -4 10 3 6 8 10 11 10 2 0 4 -4 4 -10z m-647 -20 c-3 -11 -9
-20 -15 -20 -5 0 -4 9 2 20 6 11 12 20 14 20 2 0 2 -9 -1 -20z m412 -29 c-6
-5 -21 -11 -35 -15 -21 -5 -20 -3 5 9 35 17 42 18 30 6z m152 -9 c0 -10 -6
-19 -12 -19 -5 0 -23 -3 -40 -7 l-30 -6 28 13 c15 7 24 17 20 22 -5 4 0 5 10
2 9 -4 17 -2 17 3 0 6 2 10 4 10 3 0 4 -8 3 -18z m-1220 -37 c27 -19 53 -39
58 -43 6 -5 24 -17 40 -28 69 -44 145 -120 145 -144 0 -6 3 -10 8 -10 4 0 15
-12 26 -26 l18 -26 -21 12 c-20 10 -89 67 -163 135 -15 14 -30 26 -35 26 -10
2 -139 139 -130 139 4 0 28 -16 54 -35z m1383 19 c0 -6 10 -19 22 -30 12 -10
18 -13 14 -6 -4 7 -2 12 6 12 10 0 9 3 -2 9 -8 6 -18 7 -22 5 -4 -3 -8 0 -8 5
0 13 0 13 39 0 30 -11 31 -12 14 -26 -10 -8 -13 -12 -7 -9 7 4 9 -4 6 -21 -5
-25 -6 -25 -18 -8 -8 10 -14 14 -14 8 0 -5 -18 -10 -39 -9 -22 0 -37 4 -34 9
2 4 9 5 14 2 5 -4 9 0 9 7 0 9 3 9 10 -2 8 -12 10 -10 10 8 0 15 -4 21 -12 16
-8 -5 -9 -2 -5 10 4 10 3 15 -3 11 -6 -3 -10 -1 -10 4 0 13 -22 10 -33 -4 -6
-6 -10 -6 -14 3 -3 8 -10 5 -22 -10 -14 -16 -20 -18 -26 -8 -5 8 -4 11 2 7 6
-4 13 0 16 7 4 10 0 13 -14 11 -10 -2 -19 0 -19 4 0 5 32 8 70 8 45 -1 70 -5
70 -13z m-390 -4 c-8 -5 -19 -10 -25 -10 -5 0 -3 5 5 10 8 5 20 10 25 10 6 0
3 -5 -5 -10z m65 -16 c-23 -18 -111 -64 -122 -64 -11 0 25 23 82 54 56 29 70
33 40 10z m192 -19 c4 -4 2 -5 -4 -1 -7 4 -13 2 -13 -4 0 -6 -4 -9 -9 -5 -5 3
-16 -1 -24 -9 -8 -8 -17 -13 -19 -10 -3 2 -11 -2 -18 -11 -7 -8 -21 -15 -31
-15 -11 0 -19 -5 -19 -12 0 -6 -3 -8 -7 -5 -3 4 -11 3 -17 -2 -7 -6 -23 -12
-36 -15 -14 -2 -54 -14 -89 -25 -36 -11 -68 -18 -72 -15 -4 2 -9 0 -11 -6 -1
-5 -12 -11 -23 -13 -11 -1 -26 -6 -33 -11 -7 -4 -28 -10 -45 -12 -30 -4 -29
-3 13 19 25 12 48 26 51 31 4 5 14 6 22 3 8 -3 20 0 27 6 10 9 11 9 6 0 -4 -7
-2 -13 3 -13 6 0 11 4 11 9 0 13 57 33 101 35 9 0 21 6 28 13 9 10 6 13 -16
14 -19 0 -7 8 42 23 39 12 72 18 73 14 2 -4 8 -8 13 -8 6 0 7 5 4 10 -6 10 7
14 32 11 6 -1 14 3 17 8 7 11 32 9 43 -4z m278 -25 c3 -5 -3 -7 -12 -5 -10 2
-21 4 -25 4 -5 1 -8 5 -8 10 0 10 38 3 45 -9z m-205 -10 c0 -5 -2 -10 -4 -10
-3 0 -8 5 -11 10 -3 6 -1 10 4 10 6 0 11 -4 11 -10z m-1005 -31 c-4 -5 -14 -8
-23 -8 -15 1 -15 2 1 6 9 2 14 9 11 15 -4 7 -2 8 5 4 6 -4 9 -12 6 -17z m936
7 c1 -6 1 -14 1 -17 -1 -3 5 -6 13 -6 8 0 12 3 10 7 -2 4 7 5 20 2 34 -6 31
-14 -11 -34 -41 -21 -64 -23 -64 -6 0 7 -7 3 -15 -9 -18 -26 -60 -39 -51 -16
5 13 4 14 -9 3 -8 -7 -15 -9 -15 -5 0 4 -12 0 -26 -10 -18 -11 -24 -13 -19 -4
4 8 -2 4 -15 -9 -12 -13 -24 -21 -27 -18 -10 9 27 56 53 68 13 6 24 17 24 23
0 10 40 24 82 29 3 1 9 4 12 7 10 10 36 6 37 -5z m-421 -15 c0 -5 -12 -14 -27
-20 -16 -6 -38 -15 -50 -21 -42 -18 -24 0 25 24 26 13 48 24 50 25 1 1 2 -3 2
-8z m-505 -19 c-2 -2 3 -18 11 -34 9 -17 13 -32 11 -35 -3 -2 -8 5 -12 16 -3
12 -11 21 -16 21 -6 0 -7 5 -4 10 3 6 1 10 -4 10 -6 0 -11 4 -11 8 0 5 7 9 15
9 8 0 13 -2 10 -5z m683 -75 c-18 -18 -59 -40 -64 -34 -8 8 65 58 75 51 2 -2
-3 -9 -11 -17z m-660 -78 c7 -12 7 -16 -4 -16 -7 0 -11 4 -8 8 2 4 1 9 -3 11
-5 2 -21 19 -38 38 l-30 34 36 -29 c20 -17 41 -37 47 -46z m558 46 c-11 -8
-30 -15 -44 -15 -13 0 -21 -4 -18 -9 3 -5 -1 -11 -9 -15 -9 -3 -15 0 -15 10 0
8 -5 12 -10 9 -6 -4 -8 -10 -6 -14 3 -4 -1 -8 -9 -8 -35 0 -6 25 39 34 10 2
26 8 35 13 9 5 25 9 36 9 20 0 20 0 1 -14z m215 -5 c-13 -11 -35 -20 -50 -19
-22 0 -19 3 19 19 57 24 60 24 31 0z m-385 -35 c-11 -8 -15 -19 -11 -27 6 -10
5 -10 -5 -1 -14 13 -6 48 10 38 5 -3 10 -1 10 6 0 7 3 9 7 5 5 -4 0 -14 -11
-21z m-45 -8 c-6 -8 -8 -17 -4 -20 3 -4 -5 -7 -18 -8 -13 0 -34 -2 -46 -5 -12
-2 -25 1 -28 6 -4 6 1 7 12 3 10 -3 14 -2 10 3 -4 4 9 14 30 20 52 16 57 16
44 1z m-705 -22 c10 -8 15 -14 9 -14 -5 0 -19 6 -29 14 -11 8 -15 15 -10 15 6
0 19 -7 30 -15z m-106 -11 c14 -2 36 -7 50 -10 27 -6 52 -20 90 -53 19 -17 21
-24 11 -30 -15 -9 -26 -9 -53 4 -10 4 -15 11 -12 16 3 5 -4 9 -15 9 -12 0 -21
5 -21 11 0 6 -6 9 -12 7 -7 -3 -19 1 -26 9 -8 7 -18 11 -23 8 -5 -4 -9 -2 -9
4 0 6 -11 13 -25 17 -14 3 -25 10 -25 15 0 7 9 7 70 -7z m1354 -26 c-24 -42
-84 -119 -123 -158 -34 -35 -40 -38 -25 -15 10 17 24 35 29 40 17 16 70 89 70
97 0 4 9 14 20 22 25 19 18 20 -33 2 -36 -13 -40 -13 -35 0 3 8 12 13 19 10 7
-3 15 -2 18 2 2 4 19 9 36 10 23 2 29 -1 24 -10z m-119 -18 c-3 -5 -11 -10
-16 -10 -6 0 -7 5 -4 10 3 6 11 10 16 10 6 0 7 -4 4 -10z m-1048 -6 c13 -4 20
-11 16 -17 -3 -5 -1 -7 4 -4 6 4 24 0 39 -8 16 -8 34 -15 40 -15 7 0 15 -7 18
-16 3 -8 10 -13 14 -10 5 3 26 -13 47 -34 32 -33 37 -42 26 -52 -11 -11 -13
-10 -8 5 4 11 3 16 -3 12 -6 -3 -14 5 -20 19 -11 31 -19 34 -17 6 1 -11 7 -22
15 -25 7 -3 10 -10 6 -16 -4 -8 -9 -7 -16 2 -8 11 -9 11 -5 -1 2 -8 12 -14 22
-12 9 2 14 -1 11 -6 -3 -6 5 -17 19 -26 27 -18 35 -6 10 14 -12 10 -13 16 -4
24 8 8 13 8 16 -1 2 -6 17 -25 34 -42 16 -18 27 -36 24 -41 -3 -6 0 -10 7 -11
7 0 24 -14 38 -32 20 -26 20 -29 3 -14 -14 12 -22 14 -25 7 -2 -7 -15 -1 -31
14 -16 14 -33 26 -39 26 -7 0 -6 6 2 15 7 9 10 18 6 22 -3 4 -13 -2 -21 -13
-13 -17 -14 -17 -9 -1 4 10 3 17 -2 15 -13 -4 -84 63 -78 74 3 5 0 7 -8 6 -7
-2 -12 3 -11 10 3 11 -9 16 -30 13 -4 0 -6 5 -5 11 2 7 -3 12 -9 11 -12 -3
-17 10 -14 30 1 5 -3 6 -8 3 -7 -4 -63 33 -90 60 -6 6 10 5 36 -2z m593 -1
c-8 -3 -24 -15 -34 -26 -19 -20 -20 -20 -26 -1 -5 14 -2 21 14 26 27 8 68 9
46 1z m425 -23 c-3 -5 -11 -10 -16 -10 -6 0 -7 5 -4 10 3 6 11 10 16 10 6 0 7
-4 4 -10z m-125 -50 c-30 -28 -58 -50 -63 -50 -4 0 -5 -6 -1 -12 5 -9 2 -8 -9
1 -15 12 -17 12 -12 -1 6 -15 -22 -34 -33 -23 -3 3 0 5 7 5 7 0 9 4 6 10 -7
11 6 23 85 80 76 54 86 50 20 -10z m180 37 c0 -2 -11 -17 -25 -33 -14 -16 -25
-23 -25 -15 0 11 -3 11 -17 0 -16 -13 -17 -12 -4 4 7 9 25 23 40 31 32 17 31
17 31 13z m108 -34 c-2 -5 -10 -21 -17 -38 -31 -71 -47 -101 -63 -119 -10 -11
-18 -24 -18 -30 0 -5 -3 -7 -6 -4 -7 7 75 180 90 190 14 10 18 10 14 1z m-617
-27 c-6 -7 -20 -16 -31 -19 -17 -4 -18 -2 -9 14 5 10 12 19 15 19 3 0 2 -4 -1
-10 -3 -5 -2 -10 3 -10 6 0 13 7 16 16 4 9 9 14 13 11 3 -4 1 -13 -6 -21z
m-283 -54 c16 -15 47 -42 69 -61 29 -25 39 -40 37 -58 -2 -19 1 -23 14 -18 14
5 15 4 4 -7 -10 -10 -25 1 -81 58 -37 39 -78 86 -91 104 -23 32 -23 32 -1 21
11 -7 34 -24 49 -39z m692 1 c-10 -21 -16 -41 -13 -45 2 -5 -6 -6 -19 -4 -13
3 -25 5 -28 5 -3 1 0 5 5 9 6 4 21 22 34 40 30 44 43 41 21 -5z m120 -11 c-11
-23 -26 -55 -31 -70 -7 -16 -13 -22 -16 -14 -3 7 1 19 7 28 7 8 10 17 6 21 -3
3 -6 1 -6 -5 0 -7 -5 -12 -11 -12 -6 0 -9 8 -7 18 2 9 10 16 17 14 7 -1 10 2
7 7 -5 8 44 65 50 58 2 -2 -5 -22 -16 -45z m-250 -57 c-13 -15 -35 -11 -24 6
3 5 10 7 15 4 5 -4 9 -1 9 6 0 7 3 9 6 6 4 -4 1 -13 -6 -22z m100 9 c0 -10
-92 -96 -97 -91 -3 4 -1 7 5 7 7 0 11 3 11 8 -3 20 3 32 17 32 8 0 12 5 9 10
-10 16 13 39 36 37 10 -1 19 -2 19 -3z m76 -49 c-1 -35 -7 -61 -18 -74 -9 -11
-14 -21 -12 -24 3 -3 0 -8 -6 -12 -7 -4 -10 2 -7 20 2 15 10 30 17 35 8 5 11
12 7 16 -4 4 -3 12 3 18 6 8 2 12 -13 13 -17 2 -19 0 -7 -7 9 -6 10 -10 3 -10
-6 0 -13 -8 -15 -17 -3 -16 -48 -27 -48 -11 0 4 5 8 11 8 5 0 7 5 3 12 -5 8
-2 9 9 5 9 -3 16 -2 14 3 -2 7 51 80 58 80 2 0 2 -25 1 -55z m204 8 c-1 -18
-18 -35 -24 -24 -4 6 -4 16 -1 21 7 12 25 13 25 3z m-410 -15 c0 -4 -4 -8 -9
-8 -6 0 -12 4 -15 8 -3 5 1 9 9 9 8 0 15 -4 15 -9z m262 -44 c-10 -23 -18 -31
-20 -21 -3 12 25 57 35 57 1 0 -5 -16 -15 -36z m-117 -41 c1 -12 -2 -21 -6
-20 -4 1 -7 -2 -7 -7 0 -9 -24 -26 -39 -28 -5 -1 -14 -8 -21 -17 -8 -9 -4 0 7
20 12 20 21 43 21 52 0 32 43 32 45 0z m413 -15 c-6 -18 -22 -50 -35 -70 -13
-21 -23 -42 -23 -48 0 -5 -5 -10 -10 -10 -5 0 -9 -3 -8 -7 2 -8 -51 -93 -58
-93 -12 0 54 125 92 177 13 17 28 43 34 57 14 38 21 32 8 -6z m-1037 -35 l34
-36 -35 24 c-19 13 -36 27 -38 32 -2 4 -10 7 -17 7 -8 0 -16 4 -19 9 -15 23
46 -6 75 -36z m685 -18 c-5 -18 -11 -22 -23 -18 -10 4 -14 2 -10 -4 4 -6 4
-19 0 -29 -6 -16 -7 -16 -13 1 -4 13 3 35 19 63 26 43 39 37 27 -13z m161 8
c-6 -23 -17 -45 -25 -48 -11 -4 -12 -2 -5 7 6 7 16 30 23 51 16 51 22 43 7
-10z m53 23 c0 -8 -7 -16 -15 -20 -13 -4 -14 -2 -5 14 13 23 20 26 20 6z m30
-14 c0 -4 -14 -22 -30 -41 -17 -18 -30 -38 -30 -42 0 -5 -4 -9 -10 -9 -14 0 7
51 31 73 10 10 19 22 19 28 0 6 5 7 10 4 6 -3 10 -9 10 -13z m-354 -37 c-1 -8
-5 -17 -8 -21 -5 -4 -4 16 1 34 3 9 9 -1 7 -13z m155 -8 c-10 -9 -11 -8 -5 6
3 10 9 15 12 12 3 -3 0 -11 -7 -18z m182 -48 c-15 -30 -33 -59 -39 -66 -6 -6
-17 -25 -24 -42 -7 -17 -16 -28 -21 -25 -5 3 -6 -2 -3 -10 3 -9 1 -16 -5 -16
-6 0 -11 -7 -11 -16 0 -9 -5 -12 -12 -8 -8 5 -9 2 -5 -10 4 -10 -1 -24 -13
-36 -11 -11 -20 -26 -20 -34 0 -8 -4 -17 -9 -21 -17 -10 -1 49 16 63 9 6 13
12 9 12 -5 0 -1 11 8 25 10 15 12 25 6 25 -6 0 -8 5 -5 10 4 6 11 7 17 4 6 -4
8 -2 4 4 -7 12 13 62 26 62 4 0 8 6 8 13 0 7 14 29 31 48 17 19 38 44 46 57
28 41 25 16 -4 -39z m-1176 18 c71 -5 82 -19 13 -16 -72 2 -110 9 -110 20 0 5
10 7 23 4 12 -3 46 -7 74 -8z m1272 -24 c-5 -21 -9 -42 -9 -46 0 -5 -4 -6 -8
-3 -4 3 -7 -8 -6 -24 1 -18 -4 -31 -13 -34 -8 -4 -13 -13 -9 -21 3 -8 1 -15
-5 -15 -6 0 -8 -4 -4 -9 3 -5 1 -12 -5 -16 -6 -4 -8 -10 -5 -15 3 -5 1 -11 -5
-15 -6 -4 -8 -11 -4 -16 3 -6 -4 -13 -16 -16 -16 -4 -18 -8 -8 -14 10 -7 9 -9
-4 -9 -9 0 -19 -6 -22 -12 -2 -7 -4 1 -3 19 1 19 5 29 12 25 5 -3 4 2 -4 11
-11 14 -11 17 0 17 12 0 12 2 1 9 -10 6 -9 10 7 14 12 3 21 11 21 17 0 9 -5 9
-17 -1 -16 -13 -17 -12 -4 4 18 23 60 98 68 120 3 9 9 17 14 17 5 0 9 6 9 13
0 11 19 37 26 37 1 0 -2 -17 -7 -37z m-189 7 c0 -11 -5 -20 -11 -20 -6 0 -9
-6 -6 -12 2 -7 -11 -44 -29 -83 -18 -38 -33 -65 -34 -60 -1 6 -3 18 -5 28 -2
9 1 15 6 11 12 -7 11 3 -1 27 -13 24 -2 25 16 2 12 -16 12 -16 7 5 -3 12 -10
22 -15 22 -5 0 -2 7 6 16 9 8 13 21 9 27 -4 7 1 6 10 -2 15 -12 17 -12 12 1
-3 8 1 21 9 28 9 7 13 16 10 21 -3 5 0 9 5 9 6 0 11 -9 11 -20z m-1015 -30
c-3 -5 -1 -12 5 -15 6 -4 10 -3 9 2 -5 28 4 31 99 29 103 -2 151 -18 130 -43
-6 -7 -8 -14 -4 -14 3 -1 11 -3 16 -4 6 -1 17 -3 26 -4 14 -1 14 -3 -1 -17 -9
-9 -25 -14 -35 -11 -11 3 -18 1 -14 -4 3 -5 0 -9 -5 -9 -11 0 -15 15 -12 34 1
5 -5 4 -13 -4 -19 -15 -21 -24 -3 -14 9 5 9 3 -1 -7 -11 -12 -14 -12 -22 1 -5
8 -10 11 -10 6 0 -5 -7 -3 -15 4 -8 6 -19 9 -25 5 -9 -6 -15 8 -10 30 1 6 -2
7 -6 3 -4 -4 -13 -3 -21 3 -7 6 -13 8 -13 4 0 -4 7 -13 16 -20 15 -11 15 -12
-4 -10 -11 0 -27 7 -35 14 -12 9 -16 9 -21 -1 -3 -7 -3 -2 1 12 5 21 4 23 -9
12 -12 -10 -18 -9 -27 2 -7 8 -20 12 -29 9 -13 -4 -12 -2 3 10 20 15 40 13 30
-3z m855 -34 c0 -2 -7 -7 -16 -10 -8 -3 -12 -2 -9 4 6 10 25 14 25 6z m460
-41 c-6 -14 -15 -37 -22 -52 -6 -16 -12 -32 -13 -38 -1 -5 -3 -13 -5 -17 -1
-5 -3 -14 -4 -20 -1 -7 -8 -12 -14 -10 -10 2 -10 -3 -2 -17 7 -13 7 -22 0 -26
-6 -3 -13 0 -15 8 -12 29 3 84 33 126 18 24 32 50 32 58 0 7 4 13 10 13 6 0 6
-9 0 -25z m-479 -4 c-6 -10 -7 -21 -4 -25 3 -3 1 -6 -6 -6 -14 0 -11 31 4 42
15 12 17 10 6 -11z m-734 3 c-3 -3 -12 -4 -19 -1 -8 3 -5 6 6 6 11 1 17 -2 13
-5z m213 -25 c0 7 5 9 11 5 16 -10 -7 -22 -36 -19 -22 3 -23 1 -13 -26 12 -36
21 -38 12 -4 -5 20 -3 24 10 19 9 -3 14 -10 11 -14 -3 -5 1 -15 9 -23 8 -8 12
-18 8 -23 -4 -5 1 -2 11 5 12 10 17 10 17 2 0 -7 4 -10 8 -7 4 2 14 0 22 -6
12 -8 12 -9 -2 -4 -11 3 -18 0 -18 -7 0 -8 -4 -6 -10 3 -5 8 -10 11 -10 5 0
-6 -56 -11 -143 -13 l-142 -3 45 27 c25 15 47 30 50 34 6 8 39 21 44 17 1 -1
11 5 21 13 14 11 17 11 11 1 -6 -9 -1 -8 16 3 14 9 28 13 31 9 4 -3 7 -1 7 7
0 10 3 10 15 0 11 -9 15 -9 15 -1z m33 -34 c-5 -16 -30 -15 -30 1 0 7 8 12 18
11 9 -1 15 -6 12 -12z m442 5 c-3 -5 -1 -10 6 -10 7 0 10 -3 6 -6 -9 -9 -28 6
-22 17 4 5 8 9 11 9 3 0 2 -4 -1 -10z m727 -22 c-8 -8 -9 -4 -5 13 4 13 8 18
11 10 2 -7 -1 -18 -6 -23z m-616 -13 c4 -24 3 -26 -11 -12 -8 9 -12 23 -9 32
8 20 14 15 20 -20z m631 -20 c0 -8 -4 -12 -9 -9 -5 3 -6 10 -3 15 9 13 12 11
12 -6z m-1240 -49 c2 -2 -20 -12 -49 -23 -43 -16 -70 -19 -144 -16 -49 2 -103
7 -120 12 -24 7 -14 10 61 20 50 7 94 13 99 15 12 3 149 -4 153 -8z m1062 -43
c-26 -104 -32 -123 -38 -123 -12 0 4 95 22 128 23 42 28 41 16 -5z m187 6 c1
-19 -1 -26 -6 -19 -4 7 -6 20 -5 29 7 32 10 29 11 -10z m-352 -1 c-5 -7 -9
-19 -10 -26 -4 -21 -14 -27 -14 -8 0 21 20 60 27 53 3 -3 1 -12 -3 -19z m-743
-18 c6 0 8 4 5 9 -4 5 2 8 11 6 10 -2 21 -4 26 -4 4 -1 6 -4 5 -8 -1 -5 3 -18
10 -31 7 -12 9 -22 5 -21 -20 3 -34 -2 -28 -11 4 -6 11 -7 17 -4 7 4 8 2 4 -4
-5 -9 -12 -8 -26 0 -14 9 -16 14 -7 20 9 5 8 8 -4 8 -8 0 -21 -6 -28 -12 -11
-11 -12 -9 -6 11 5 16 4 21 -4 17 -6 -4 -11 -17 -11 -29 -1 -20 -1 -21 -11 -4
-8 14 -7 23 7 38 9 10 14 19 10 19 -4 0 -4 5 0 12 6 9 9 9 12 0 2 -7 8 -12 13
-12z m596 0 c-1 -11 -7 -20 -14 -20 -11 0 -11 4 -1 20 7 11 14 20 15 20 1 0 1
-9 0 -20z m209 4 c-3 -9 -6 -18 -6 -20 0 -2 -5 -4 -11 -4 -8 0 -9 4 0 13 6 8
8 17 4 20 -3 4 -1 7 6 7 8 0 11 -6 7 -16z m-837 -3 c2 0 -4 -10 -14 -21 -20
-22 -55 -26 -71 -10 -14 14 -15 -20 -1 -37 6 -9 6 -13 -1 -13 -11 0 -24 28
-17 39 2 4 -9 8 -24 8 -19 0 -27 -5 -24 -13 6 -15 -13 -28 -22 -14 -11 18 16
41 38 34 15 -5 18 -3 12 7 -5 8 -5 11 -1 8 4 -4 23 -1 42 6 30 10 63 13 83 6z
m571 -28 c-11 -17 -11 -17 -6 0 3 10 6 24 7 30 0 9 2 9 5 0 3 -7 0 -20 -6 -30z
m304 22 c-4 -8 -11 -15 -16 -15 -6 0 -5 6 2 15 7 8 14 15 16 15 2 0 1 -7 -2
-15z m-1176 -9 c2 -3 -16 -10 -39 -17 -58 -16 -72 -19 -65 -11 4 3 -13 14 -36
23 l-43 18 89 -5 c49 -2 91 -6 94 -8z m122 10 c0 -3 -4 -8 -10 -11 -5 -3 -10
-1 -10 4 0 6 5 11 10 11 6 0 10 -2 10 -4z m-35 -16 c-3 -5 -14 -10 -23 -9 -14
0 -13 2 3 9 27 11 27 11 20 0z m533 -2 c-2 -7 2 -12 8 -11 6 1 11 -5 11 -13 0
-12 -4 -11 -18 2 -10 9 -16 21 -13 25 8 13 14 11 12 -3z m-580 -10 c-4 -10
-88 -41 -88 -32 0 2 14 10 30 19 17 9 30 12 30 8 0 -4 5 -2 12 5 15 15 21 15
16 0z m1115 -18 c-3 -12 -8 -19 -11 -16 -5 6 5 36 12 36 2 0 2 -9 -1 -20z
m-974 -13 c8 -10 7 -14 -2 -14 -8 0 -14 6 -14 14 0 7 1 13 2 13 2 0 8 -6 14
-13z m66 -5 c-3 -3 -11 0 -18 7 -9 10 -8 11 6 5 10 -3 15 -9 12 -12z m1195 8
c0 -5 -5 -10 -11 -10 -5 0 -7 5 -4 10 3 6 8 10 11 10 2 0 4 -4 4 -10z m-1505
-9 c-6 -5 -23 -12 -40 -15 -28 -6 -28 -5 5 8 43 18 46 18 35 7z m1155 -19 c0
-10 -6 -24 -12 -31 -10 -11 -10 -13 0 -7 6 4 12 2 12 -3 0 -6 -3 -11 -7 -11
-5 0 -8 -12 -9 -28 -1 -24 -39 -122 -48 -122 -2 0 -6 12 -9 26 -3 18 -1 24 9
20 16 -6 19 10 5 18 -5 4 -2 20 7 39 9 17 18 43 20 57 2 13 8 28 14 31 6 4 7
12 4 18 -4 6 -2 11 3 11 6 0 11 -8 11 -18z m80 -42 c-5 -10 -10 -28 -10 -39 0
-12 -4 -21 -9 -21 -5 0 -5 16 0 38 5 20 9 41 9 45 0 5 5 5 10 2 7 -4 7 -12 0
-25z m276 4 c1 -9 0 -13 -4 -10 -3 4 -7 14 -8 22 -1 9 0 13 4 10 3 -4 7 -14 8
-22z m-440 -1 c-3 -10 -8 -35 -10 -57 -3 -21 -7 -41 -11 -44 -6 -6 2 73 11
101 3 9 8 17 10 17 3 0 3 -8 0 -17z m-486 -28 c11 -13 10 -14 -4 -9 -9 3 -16
10 -16 15 0 13 6 11 20 -6z m46 3 c5 -7 3 -8 -6 -3 -10 6 -12 4 -6 -11 5 -14
4 -16 -5 -7 -6 6 -8 16 -5 22 9 14 13 14 22 -1z m-166 -8 c3 -1 8 -2 13 -1 4
0 7 -3 7 -9 0 -12 -53 -8 -62 5 -5 6 -8 6 -8 -1 0 -6 -11 -11 -25 -11 -22 0
-23 1 -9 11 14 10 68 14 84 6z m1055 -30 c1 -17 0 -28 -3 -25 -3 3 -7 19 -8
36 -2 17 0 28 3 25 3 -3 7 -19 8 -36z m-700 -1 c11 -17 -1 -21 -15 -4 -8 9 -8
15 -2 15 6 0 14 -5 17 -11z m-476 -34 c10 -5 12 -4 7 3 -4 7 -2 12 3 12 6 0
11 -7 11 -15 0 -11 -13 -14 -60 -12 -62 2 -81 13 -32 19 39 5 56 3 71 -7z m84
4 c10 8 14 7 14 -2 0 -8 -14 -14 -34 -15 -18 -2 -33 1 -33 6 0 16 13 22 27 11
9 -8 17 -8 26 0z m60 -4 c-3 -9 -8 -14 -10 -11 -3 3 -2 9 2 15 9 16 15 13 8
-4z m347 -25 c0 -5 -2 -10 -4 -10 -3 0 -8 5 -11 10 -3 6 -1 10 4 10 6 0 11 -4
11 -10z m113 -5 c9 -4 17 -15 17 -24 -1 -14 -2 -14 -14 1 -7 10 -15 15 -18 13
-3 -3 -11 1 -17 9 -13 16 -3 16 32 1z m-563 -10 c0 -7 -30 -13 -34 -7 -3 4 4
9 15 9 10 1 19 0 19 -2z m280 1 c0 -3 -4 -8 -10 -11 -5 -3 -10 -1 -10 4 0 6 5
11 10 11 6 0 10 -2 10 -4z m180 -26 c0 -5 -5 -10 -11 -10 -5 0 -7 5 -4 10 3 6
8 10 11 10 2 0 4 -4 4 -10z m-200 -14 c0 -3 -4 -8 -10 -11 -5 -3 -10 -1 -10 4
0 6 5 11 10 11 6 0 10 -2 10 -4z m53 -30 c4 -9 -2 -12 -16 -11 -36 4 -37 4
-37 17 0 9 3 9 12 0 17 -17 33 -15 18 3 -11 13 -10 14 3 9 8 -3 18 -11 20 -18z
m42 5 c3 -5 2 -12 -3 -15 -5 -3 -9 1 -9 9 0 17 3 19 12 6z m-155 -43 c0 -9
-36 -5 -46 5 -4 4 5 6 19 5 15 -1 27 -6 27 -10z m460 -19 c0 -4 7 -6 16 -5 9
0 19 -5 21 -11 3 -7 0 -13 -7 -13 -6 0 -8 5 -4 12 4 7 3 8 -4 4 -6 -4 -20 -2
-30 3 -14 7 -19 6 -19 -4 0 -8 4 -12 8 -9 5 3 18 0 29 -6 16 -9 25 -8 36 1 9
8 14 8 14 1 0 -6 -9 -16 -20 -22 -11 -6 -20 -8 -20 -5 0 4 -6 3 -12 -2 -31
-19 -45 -13 -44 20 1 20 -4 31 -12 30 -6 -2 -12 1 -12 6 0 5 14 8 30 7 17 0
30 -4 30 -7z m-241 -12 c8 -10 7 -14 -2 -14 -8 0 -14 6 -14 14 0 7 1 13 2 13
2 0 8 -6 14 -13z m57 2 c4 -8 9 -7 16 2 8 12 9 12 6 0 -2 -8 -12 -15 -21 -17
-9 -1 -15 2 -12 6 3 5 -5 11 -17 13 -23 4 -23 4 -1 6 12 0 25 -4 29 -10z m115
-16 c13 -17 13 -17 -6 -3 -11 8 -22 16 -24 17 -2 2 0 3 6 3 6 0 17 -8 24 -17z
m-318 -48 c-3 -9 -8 -14 -10 -11 -3 3 -2 9 2 15 9 16 15 13 8 -4z m180 -18 c6
4 8 0 4 -10 -8 -20 11 -33 26 -18 6 6 24 11 40 11 15 0 26 4 23 8 -2 4 4 9 15
9 10 1 19 -3 19 -9 0 -6 -3 -9 -6 -6 -3 4 -17 0 -31 -7 -15 -8 -30 -12 -35 -9
-4 3 -8 1 -8 -4 0 -5 -8 -12 -19 -15 -12 -3 -23 4 -35 23 -9 16 -16 32 -15 37
0 4 3 2 6 -5 2 -6 10 -9 16 -5z m62 -5 c-3 -3 -11 0 -18 7 -9 10 -8 11 6 5 10
-3 15 -9 12 -12z m-30 -13 c-10 -15 -25 -10 -19 6 4 8 10 12 15 9 5 -3 7 -10
4 -15z m215 11 c0 -5 -5 -10 -11 -10 -5 0 -7 5 -4 10 3 6 8 10 11 10 2 0 4 -4
4 -10z m-465 -40 c3 -5 1 -10 -4 -10 -6 0 -11 5 -11 10 0 6 2 10 4 10 3 0 8
-4 11 -10z m45 6 c0 -2 -7 -7 -16 -10 -8 -3 -12 -2 -9 4 6 10 25 14 25 6z
m708 -64 c-8 -9 -8 -13 -2 -9 7 4 17 1 22 -6 18 -21 10 -53 -16 -65 -14 -6
-22 -9 -19 -5 4 3 -6 19 -22 34 -23 22 -27 30 -17 38 7 6 16 9 19 6 4 -3 4 -2
1 3 -3 4 -10 8 -15 8 -22 3 -22 6 1 13 14 4 33 5 43 3 14 -4 15 -7 5 -20z
m-540 7 c-25 -14 -103 -41 -94 -32 8 9 86 41 101 42 6 0 2 -4 -7 -10z m462
-63 c0 -3 -4 -8 -10 -11 -5 -3 -10 -1 -10 4 0 6 5 11 10 11 6 0 10 -2 10 -4z
m115 -36 c3 -6 -1 -7 -9 -4 -18 7 -21 14 -7 14 6 0 13 -4 16 -10z m-785 -10
c0 -5 -5 -10 -11 -10 -5 0 -7 5 -4 10 3 6 8 10 11 10 2 0 4 -4 4 -10z"/>
<path d="M1316 3442 c-2 -4 -1 -14 4 -22 7 -11 9 -9 7 8 -1 24 -3 26 -11 14z"/>
<path d="M1430 3301 c0 -6 4 -13 10 -16 6 -3 7 1 4 9 -7 18 -14 21 -14 7z"/>
<path d="M1494 3081 c4 -5 1 -12 -4 -14 -6 -3 -5 -4 2 -3 15 3 23 26 8 26 -6
0 -9 -4 -6 -9z"/>
<path d="M1604 2891 c4 -5 0 -11 -6 -14 -7 -3 -3 -4 9 -4 17 1 19 4 11 14 -12
15 -22 18 -14 4z"/>
<path d="M1405 2912 c3 -3 -1 -12 -7 -21 -8 -10 -4 -9 10 3 26 23 26 23 7 23
-8 0 -13 -3 -10 -5z"/>
<path d="M3310 2875 c-11 -13 -10 -14 4 -9 9 3 16 10 16 15 0 13 -6 11 -20 -6z"/>
<path d="M3168 2726 c-15 -11 -15 -13 2 -24 15 -9 19 -8 24 5 9 23 -6 34 -26
19z"/>
<path d="M1627 2593 c-2 -5 4 -21 14 -38 11 -16 19 -25 19 -20 0 6 -7 20 -15
32 -12 16 -12 22 -2 26 9 4 9 6 0 6 -6 1 -14 -2 -16 -6z"/>
<path d="M1460 2320 c0 -5 5 -10 11 -10 5 0 7 -5 3 -12 -4 -7 -3 -8 4 -4 6 4
9 13 5 21 -6 17 -23 20 -23 5z"/>
<path d="M1576 2361 c-3 -5 1 -17 10 -25 20 -21 21 -20 20 6 -1 23 -20 35 -30
19z m24 -11 c0 -5 -2 -10 -4 -10 -3 0 -8 5 -11 10 -3 6 -1 10 4 10 6 0 11 -4
11 -10z"/>
<path d="M1716 2351 c-17 -6 -17 -8 -4 -14 10 -3 19 0 22 9 3 8 4 14 3 13 -1
0 -11 -4 -21 -8z"/>
<path d="M1640 2320 c-8 -5 -10 -10 -5 -10 6 0 17 5 25 10 8 5 11 10 5 10 -5
0 -17 -5 -25 -10z"/>
<path d="M1600 2260 c8 -5 20 -10 25 -10 6 0 3 5 -5 10 -8 5 -19 10 -25 10 -5
0 -3 -5 5 -10z"/>
<path d="M1753 2236 c0 -8 3 -15 6 -14 14 1 51 -15 51 -22 0 -5 -8 -11 -17
-13 -15 -4 -16 -5 -2 -6 9 0 24 10 32 23 16 23 15 24 -9 21 -14 -1 -31 4 -39
11 -17 18 -22 18 -22 0z"/>
<path d="M1613 2225 c0 -8 4 -12 9 -9 5 3 6 10 3 15 -9 13 -12 11 -12 -6z"/>
<path d="M1675 2231 c-3 -5 -2 -12 3 -15 5 -3 9 1 9 9 0 17 -3 19 -12 6z"/>
<path d="M1820 2169 c0 -5 -6 -7 -12 -3 -7 4 -9 3 -5 -1 13 -15 36 -14 30 1
-6 17 -13 18 -13 3z"/>
<path d="M1375 1911 c-3 -5 -2 -12 3 -15 5 -3 9 1 9 9 0 17 -3 19 -12 6z"/>
<path d="M1495 1860 c-3 -5 -1 -10 4 -10 6 0 11 5 11 10 0 6 -2 10 -4 10 -3 0
-8 -4 -11 -10z"/>
<path d="M510 1534 c0 -8 5 -12 10 -9 6 4 8 11 5 16 -9 14 -15 11 -15 -7z"/>
<path d="M1302 1273 c1 -4 -3 -18 -10 -30 -17 -31 -8 -29 12 1 10 16 12 27 6
31 -6 4 -9 3 -8 -2z"/>
<path d="M1475 1060 c-3 -5 -1 -10 4 -10 6 0 11 5 11 10 0 6 -2 10 -4 10 -3 0
-8 -4 -11 -10z"/>
<path d="M572 1105 c4 -4 3 -14 -2 -20 -7 -9 -5 -17 7 -26 16 -12 17 -12 6 2
-9 11 -9 19 -2 26 8 8 7 13 -3 18 -7 5 -10 5 -6 0z"/>
<path d="M971 806 c-10 -12 -8 -17 9 -26 28 -15 36 -7 17 20 -12 17 -16 18
-26 6z m24 -16 c3 -6 -1 -7 -9 -4 -18 7 -21 14 -7 14 6 0 13 -4 16 -10z"/>
<path d="M875 800 c-4 -6 -11 -7 -17 -4 -7 4 -8 2 -4 -5 6 -9 11 -9 22 0 14
11 18 19 10 19 -3 0 -8 -5 -11 -10z"/>
<path d="M1585 381 c-3 -5 2 -11 10 -15 8 -3 17 -1 20 3 3 5 -2 11 -10 15 -8
3 -17 1 -20 -3z"/>
<path d="M1917 168 c17 -19 26 -17 29 5 1 8 -9 13 -22 13 -22 0 -22 -1 -7 -18z"/>
<path d="M959 3493 c-13 -17 -13 -17 6 -3 11 8 22 16 24 17 2 2 0 3 -6 3 -6 0
-17 -8 -24 -17z"/>
<path d="M979 3488 c-5 -18 -6 -38 -1 -34 7 8 12 36 6 36 -2 0 -4 -1 -5 -2z"/>
<path d="M1115 3360 c3 -5 8 -10 11 -10 2 0 4 5 4 10 0 6 -5 10 -11 10 -5 0
-7 -4 -4 -10z"/>
<path d="M1894 3336 c1 -8 5 -18 8 -22 4 -3 5 1 4 10 -1 8 -5 18 -8 22 -4 3
-5 -1 -4 -10z"/>
<path d="M1930 3340 c0 -5 5 -10 11 -10 5 0 7 5 4 10 -3 6 -8 10 -11 10 -2 0
-4 -4 -4 -10z"/>
<path d="M1150 3320 c0 -5 5 -10 11 -10 5 0 7 5 4 10 -3 6 -8 10 -11 10 -2 0
-4 -4 -4 -10z"/>
<path d="M1820 3300 c-8 -5 -10 -10 -5 -10 6 0 17 5 25 10 8 5 11 10 5 10 -5
0 -17 -5 -25 -10z"/>
<path d="M1759 3233 c-13 -16 -12 -17 4 -4 9 7 17 15 17 17 0 8 -8 3 -21 -13z"/>
<path d="M1827 3239 c7 -7 15 -10 18 -7 3 3 -2 9 -12 12 -14 6 -15 5 -6 -5z"/>
<path d="M981 3196 c-9 -11 -9 -16 1 -22 7 -4 10 -4 6 1 -4 4 -3 14 3 22 6 7
9 13 6 13 -2 0 -10 -6 -16 -14z"/>
<path d="M1835 3200 c3 -5 8 -10 11 -10 2 0 4 5 4 10 0 6 -5 10 -11 10 -5 0
-7 -4 -4 -10z"/>
<path d="M1966 3202 c-3 -5 1 -9 9 -9 8 0 12 4 9 9 -3 4 -7 8 -9 8 -2 0 -6 -4
-9 -8z"/>
<path d="M1746 3162 c-3 -5 1 -9 9 -9 8 0 12 4 9 9 -3 4 -7 8 -9 8 -2 0 -6 -4
-9 -8z"/>
<path d="M1920 3160 c-9 -6 -10 -10 -3 -10 6 0 15 5 18 10 8 12 4 12 -15 0z"/>
<path d="M1750 3136 c0 -2 8 -10 18 -17 15 -13 16 -12 3 4 -13 16 -21 21 -21
13z"/>
<path d="M1795 3129 c-4 -6 -5 -12 -2 -15 2 -3 7 2 10 11 7 17 1 20 -8 4z"/>
<path d="M1877 3111 c-10 -14 -10 -14 3 -5 8 6 25 10 38 9 13 -1 25 1 27 5 9
14 -56 5 -68 -9z"/>
<path d="M1753 3095 c0 -8 4 -12 9 -9 5 3 6 10 3 15 -9 13 -12 11 -12 -6z"/>
<path d="M1976 3087 c3 -10 9 -15 12 -12 3 3 0 11 -7 18 -10 9 -11 8 -5 -6z"/>
<path d="M1896 3073 c-6 -14 -5 -15 5 -6 7 7 10 15 7 18 -3 3 -9 -2 -12 -12z"/>
<path d="M1130 3060 c0 -5 5 -10 11 -10 5 0 7 5 4 10 -3 6 -8 10 -11 10 -2 0
-4 -4 -4 -10z"/>
<path d="M3355 3049 c-4 -6 -5 -12 -2 -15 2 -3 7 2 10 11 7 17 1 20 -8 4z"/>
<path d="M1980 3046 c0 -2 8 -10 18 -17 15 -13 16 -12 3 4 -13 16 -21 21 -21
13z"/>
<path d="M1176 3027 c3 -10 9 -15 12 -12 3 3 0 11 -7 18 -10 9 -11 8 -5 -6z"/>
<path d="M1276 3002 c-3 -5 1 -9 9 -9 8 0 12 4 9 9 -3 4 -7 8 -9 8 -2 0 -6 -4
-9 -8z"/>
<path d="M2090 3001 c0 -6 4 -13 10 -16 6 -3 7 1 4 9 -7 18 -14 21 -14 7z"/>
<path d="M3375 3000 c-3 -5 -1 -10 4 -10 6 0 11 5 11 10 0 6 -2 10 -4 10 -3 0
-8 -4 -11 -10z"/>
<path d="M1754 2986 c1 -8 5 -18 8 -22 4 -3 5 1 4 10 -1 8 -5 18 -8 22 -4 3
-5 -1 -4 -10z"/>
<path d="M3354 2959 c-1 -16 3 -29 8 -29 5 0 7 4 3 9 -6 11 34 43 46 35 4 -2
10 0 14 5 6 10 -33 6 -43 -4 -3 -2 -10 -1 -16 4 -8 7 -12 0 -12 -20z"/>
<path d="M1268 2973 c7 -3 16 -2 19 1 4 3 -2 6 -13 5 -11 0 -14 -3 -6 -6z"/>
<path d="M1815 2969 c-4 -6 -5 -12 -2 -15 2 -3 7 2 10 11 7 17 1 20 -8 4z"/>
<path d="M3435 2961 c-3 -5 -2 -12 3 -15 5 -3 9 1 9 9 0 17 -3 19 -12 6z"/>
<path d="M1896 2927 c3 -10 9 -15 12 -12 3 3 0 11 -7 18 -10 9 -11 8 -5 -6z"/>
<path d="M3475 2930 c-4 -6 -11 -8 -16 -5 -5 4 -9 1 -9 -4 0 -16 16 -13 30 4
7 8 10 15 7 15 -3 0 -9 -5 -12 -10z"/>
<path d="M3276 2917 c3 -10 9 -15 12 -12 3 3 0 11 -7 18 -10 9 -11 8 -5 -6z"/>
<path d="M1775 2909 c-4 -6 -5 -12 -2 -15 2 -3 7 2 10 11 7 17 1 20 -8 4z"/>
<path d="M1877 2890 c7 -8 20 -15 29 -16 9 -1 13 1 9 4 -4 4 -10 7 -13 7 -4 0
-14 4 -22 9 -12 7 -13 6 -3 -4z"/>
<path d="M3575 2889 c-4 -6 -5 -12 -2 -15 2 -3 7 2 10 11 7 17 1 20 -8 4z"/>
<path d="M1433 2846 c0 -23 2 -35 4 -28 3 6 9 9 14 6 6 -3 5 -12 -3 -22 -12
-15 -11 -16 4 -4 22 17 67 22 75 9 3 -6 1 -7 -5 -3 -8 4 -12 0 -12 -11 -1 -17
-1 -17 -14 -1 -7 10 -16 15 -19 12 -3 -4 0 -13 8 -21 11 -11 19 -11 35 -3 26
14 25 26 -5 56 -13 13 -24 27 -24 29 1 15 -9 29 -17 22 -5 -4 -2 -12 6 -17 10
-7 11 -10 3 -10 -7 0 -13 -5 -13 -11 0 -5 4 -8 8 -5 4 2 14 0 22 -6 12 -8 12
-9 -2 -4 -10 3 -20 1 -23 -5 -4 -5 -11 -7 -16 -3 -5 3 -6 10 -3 16 5 7 2 8 -5
3 -10 -6 -11 -3 -2 13 14 26 14 29 -2 29 -9 0 -13 -14 -14 -41z"/>
<path d="M3535 2860 c-7 -11 8 -42 18 -41 19 3 28 0 23 -7 -2 -4 4 -9 15 -9
18 -2 18 0 -3 18 -14 13 -17 19 -7 16 9 -3 22 -1 30 4 8 5 10 9 4 10 -5 0 -20
2 -32 3 -12 1 -20 -1 -17 -6 3 -4 -2 -8 -10 -8 -10 0 -13 6 -10 15 7 17 -1 20
-11 5z"/>
<path d="M1990 2836 c7 -7 13 -7 20 0 6 6 3 10 -10 10 -13 0 -16 -4 -10 -10z"/>
<path d="M3520 2822 c0 -13 25 -33 32 -26 3 3 9 0 14 -7 4 -7 3 -10 -4 -5 -6
3 -14 1 -18 -5 -5 -9 0 -10 17 -6 23 6 23 5 5 -8 -11 -8 -14 -16 -8 -16 7 -1
17 -3 22 -4 6 -1 15 -3 21 -4 5 0 7 -6 4 -11 -4 -7 -13 -6 -26 1 -28 14 -34 6
-11 -14 18 -16 20 -16 37 3 20 23 28 50 15 50 -5 0 -10 -5 -12 -12 -3 -7 -10
-8 -17 -3 -11 6 -8 11 10 22 13 8 16 12 6 9 -10 -3 -26 3 -37 14 -11 11 -20
17 -20 14 0 -4 -7 -1 -15 6 -8 7 -15 8 -15 2z"/>
<path d="M1926 2798 c3 -5 10 -6 15 -3 13 9 11 12 -6 12 -8 0 -12 -4 -9 -9z"/>
<path d="M3650 2780 c0 -5 5 -10 11 -10 5 0 7 5 4 10 -3 6 -8 10 -11 10 -2 0
-4 -4 -4 -10z"/>
<path d="M1511 2761 c-11 -7 -9 -10 8 -16 12 -3 19 -11 15 -16 -3 -6 3 -5 15
2 22 15 9 31 -17 21 -10 -3 -13 -1 -8 6 9 14 6 15 -13 3z"/>
<path d="M1794 2754 c1 -6 7 -18 14 -26 6 -8 9 -18 5 -21 -3 -4 -1 -7 5 -7 16
0 15 10 -5 32 -9 11 -11 18 -5 18 7 0 12 4 12 8 0 5 -6 9 -14 9 -7 0 -13 -6
-12 -13z"/>
<path d="M2030 2736 c0 -2 8 -10 18 -17 15 -13 16 -12 3 4 -13 16 -21 21 -21
13z"/>
<path d="M3630 2725 c0 -5 5 -17 10 -25 5 -8 10 -10 10 -5 0 6 -5 17 -10 25
-5 8 -10 11 -10 5z"/>
<path d="M3666 2702 c-3 -5 1 -9 9 -9 8 0 12 4 9 9 -3 4 -7 8 -9 8 -2 0 -6 -4
-9 -8z"/>
<path d="M1799 2681 c9 -6 10 -10 2 -14 -8 -4 -8 -5 1 -3 20 4 21 26 1 26 -14
0 -15 -2 -4 -9z"/>
<path d="M1825 2652 c4 -7 1 -19 -5 -27 -12 -14 -9 -16 15 -15 3 1 12 -6 21
-14 8 -9 27 -13 44 -11 17 2 28 -1 25 -6 -4 -5 2 -6 12 -2 10 3 15 3 11 -1
-10 -11 -58 -15 -52 -4 4 6 -3 5 -15 -1 -11 -7 -21 -14 -21 -17 0 -3 4 -3 9 0
5 4 21 2 35 -4 22 -8 30 -6 43 10 13 15 19 17 26 7 6 -9 8 -8 5 2 -2 8 -12 15
-22 17 -10 1 -26 10 -36 19 -12 11 -20 13 -25 5 -5 -8 -11 -8 -19 -1 -7 6 -16
8 -19 4 -4 -3 -7 -2 -7 3 0 6 -7 19 -16 30 -8 10 -13 13 -9 6z"/>
<path d="M2193 2645 c0 -8 4 -12 9 -9 5 3 6 10 3 15 -9 13 -12 11 -12 -6z"/>
<path d="M2277 2635 c-4 -8 -3 -16 1 -19 4 -3 9 4 9 15 2 23 -3 25 -10 4z"/>
<path d="M2110 2616 c0 -2 8 -10 18 -17 15 -13 16 -12 3 4 -13 16 -21 21 -21
13z"/>
<path d="M2170 2601 c0 -6 4 -13 10 -16 6 -3 7 1 4 9 -7 18 -14 21 -14 7z"/>
<path d="M390 2213 c0 -5 6 -17 13 -28 11 -14 16 -15 22 -5 5 9 4 11 -3 6 -7
-4 -12 -1 -12 8 0 8 -4 18 -10 21 -5 3 -10 2 -10 -2z"/>
<path d="M1376 2198 c3 -5 10 -6 15 -3 13 9 11 12 -6 12 -8 0 -12 -4 -9 -9z"/>
<path d="M1354 2186 c1 -8 5 -18 8 -22 4 -3 5 1 4 10 -1 8 -5 18 -8 22 -4 3
-5 -1 -4 -10z"/>
<path d="M559 1977 c6 -8 7 -18 3 -22 -4 -5 -1 -5 6 -1 10 6 10 11 1 22 -6 8
-14 14 -16 14 -3 0 0 -6 6 -13z"/>
<path d="M570 1919 c0 -5 5 -7 10 -4 6 3 10 8 10 11 0 2 -4 4 -10 4 -5 0 -10
-5 -10 -11z"/>
<path d="M1756 1841 c-4 -6 -2 -11 5 -11 7 0 5 -8 -6 -20 -10 -11 -16 -22 -14
-24 9 -9 37 41 29 53 -5 9 -10 10 -14 2z"/>
<path d="M1700 1820 c0 -5 5 -10 11 -10 5 0 7 5 4 10 -3 6 -8 10 -11 10 -2 0
-4 -4 -4 -10z"/>
<path d="M1808 1801 c-13 -14 -16 -20 -7 -13 9 6 20 8 24 4 5 -4 5 -1 0 7 -8
14 0 14 50 -4 14 -5 16 -4 6 3 -11 8 -11 11 0 16 8 3 3 3 -10 0 -13 -4 -21 -2
-18 3 13 21 -24 8 -45 -16z"/>
<path d="M1687 1799 c7 -7 15 -10 18 -7 3 3 -2 9 -12 12 -14 6 -15 5 -6 -5z"/>
<path d="M1840 1780 c-9 -6 -10 -10 -3 -10 6 0 15 5 18 10 8 12 4 12 -15 0z"/>
<path d="M1651 1764 c0 -11 3 -14 6 -6 3 7 2 16 -1 19 -3 4 -6 -2 -5 -13z"/>
<path d="M1776 1767 c3 -10 9 -15 12 -12 3 3 0 11 -7 18 -10 9 -11 8 -5 -6z"/>
<path d="M518 1393 c7 -3 16 -2 19 1 4 3 -2 6 -13 5 -11 0 -14 -3 -6 -6z"/>
<path d="M541 1364 c0 -11 3 -14 6 -6 3 7 2 16 -1 19 -3 4 -6 -2 -5 -13z"/>
<path d="M1518 1313 c6 -2 10 -9 7 -13 -3 -5 0 -12 6 -16 8 -4 9 -3 5 4 -4 7
-1 12 6 12 9 0 9 3 -2 10 -8 5 -19 9 -25 9 -5 0 -4 -3 3 -6z"/>
<path d="M1991 1124 c0 -11 3 -14 6 -6 3 7 2 16 -1 19 -3 4 -6 -2 -5 -13z"/>
<path d="M1995 1070 c3 -5 8 -10 11 -10 2 0 4 5 4 10 0 6 -5 10 -11 10 -5 0
-7 -4 -4 -10z"/>
<path d="M333 1015 c0 -8 4 -12 9 -9 5 3 6 10 3 15 -9 13 -12 11 -12 -6z"/>
<path d="M1995 649 c-4 -6 -5 -12 -2 -15 2 -3 7 2 10 11 7 17 1 20 -8 4z"/>
<path d="M1936 638 c3 -5 10 -6 15 -3 13 9 11 12 -6 12 -8 0 -12 -4 -9 -9z"/>
<path d="M1833 507 c0 -8 6 -14 14 -14 9 0 10 4 2 14 -6 7 -12 13 -14 13 -1 0
-2 -6 -2 -13z"/>
<path d="M819 497 c7 -7 14 -8 21 -1 6 6 2 10 -12 11 -16 2 -18 -1 -9 -10z"/>
<path d="M2035 501 c-3 -5 -2 -12 3 -15 5 -3 9 1 9 9 0 17 -3 19 -12 6z"/>
<path d="M2876 498 c3 -4 11 -5 19 -1 21 7 19 12 -4 10 -11 0 -18 -5 -15 -9z"/>
<path d="M840 480 c-9 -6 -10 -10 -3 -10 6 0 15 5 18 10 8 12 4 12 -15 0z"/>
<path d="M2636 473 c-6 -14 -5 -15 5 -6 7 7 10 15 7 18 -3 3 -9 -2 -12 -12z"/>
<path d="M2550 476 c0 -2 8 -10 18 -17 15 -13 16 -12 3 4 -13 16 -21 21 -21
13z"/>
<path d="M906 458 c3 -4 11 -5 19 -1 21 7 19 12 -4 10 -11 0 -18 -5 -15 -9z"/>
<path d="M2481 436 c-9 -11 -9 -16 1 -22 7 -4 10 -4 6 1 -4 4 -3 14 3 22 6 7
9 13 6 13 -2 0 -10 -6 -16 -14z"/>
<path d="M2625 440 c-3 -6 1 -7 9 -4 18 7 21 14 7 14 -6 0 -13 -4 -16 -10z"/>
<path d="M2160 415 c-7 -9 -11 -17 -9 -20 3 -2 10 5 17 15 14 24 10 26 -8 5z"/>
<path d="M2270 420 c0 -5 5 -10 11 -10 5 0 7 5 4 10 -3 6 -8 10 -11 10 -2 0
-4 -4 -4 -10z"/>
<path d="M2306 418 c3 -5 10 -6 15 -3 13 9 11 12 -6 12 -8 0 -12 -4 -9 -9z"/>
<path d="M2546 418 c3 -5 10 -6 15 -3 13 9 11 12 -6 12 -8 0 -12 -4 -9 -9z"/>
<path d="M2750 416 c0 -2 8 -10 18 -17 15 -13 16 -12 3 4 -13 16 -21 21 -21
13z"/>
<path d="M2226 402 c-2 -4 4 -8 14 -8 10 0 16 4 14 8 -3 4 -9 8 -14 8 -5 0
-11 -4 -14 -8z"/>
<path d="M2376 398 c3 -5 10 -6 15 -3 13 9 11 12 -6 12 -8 0 -12 -4 -9 -9z"/>
<path d="M2715 401 c-3 -5 -2 -12 3 -15 5 -3 9 1 9 9 0 17 -3 19 -12 6z"/>
<path d="M2035 391 c-3 -5 -2 -12 3 -15 5 -3 9 1 9 9 0 17 -3 19 -12 6z"/>
<path d="M2595 369 c-4 -6 -5 -12 -2 -15 2 -3 7 2 10 11 7 17 1 20 -8 4z"/>
<path d="M2376 353 c-6 -14 -5 -15 5 -6 7 7 10 15 7 18 -3 3 -9 -2 -12 -12z"/>
<path d="M2467 359 c7 -7 15 -10 18 -7 3 3 -2 9 -12 12 -14 6 -15 5 -6 -5z"/>
<path d="M2470 326 c0 -2 7 -7 16 -10 8 -3 12 -2 9 4 -6 10 -25 14 -25 6z"/>
<path d="M2595 320 c3 -5 8 -10 11 -10 2 0 4 5 4 10 0 6 -5 10 -11 10 -5 0 -7
-4 -4 -10z"/>
<path d="M2210 299 c0 -5 5 -7 10 -4 6 3 10 8 10 11 0 2 -4 4 -10 4 -5 0 -10
-5 -10 -11z"/>
<path d="M2375 300 c3 -5 8 -10 11 -10 2 0 4 5 4 10 0 6 -5 10 -11 10 -5 0 -7
-4 -4 -10z"/>
<path d="M2455 300 c-3 -5 -1 -10 4 -10 6 0 11 5 11 10 0 6 -2 10 -4 10 -3 0
-8 -4 -11 -10z"/>
<path d="M2715 300 c-3 -5 -1 -10 4 -10 6 0 11 5 11 10 0 6 -2 10 -4 10 -3 0
-8 -4 -11 -10z"/>
<path d="M1587 274 c-15 -8 -27 -17 -27 -20 0 -3 5 -2 11 1 6 4 22 10 37 14
14 4 22 10 17 13 -6 3 -22 0 -38 -8z"/>
<path d="M2305 280 c-3 -6 1 -7 9 -4 18 7 21 14 7 14 -6 0 -13 -4 -16 -10z"/>
<path d="M946 258 c3 -5 10 -6 15 -3 13 9 11 12 -6 12 -8 0 -12 -4 -9 -9z"/>
<path d="M1240 260 c-9 -6 -10 -10 -3 -10 6 0 15 5 18 10 8 12 4 12 -15 0z"/>
<path d="M1580 238 c-12 -13 -16 -24 -10 -26 5 -2 7 -9 3 -15 -3 -7 -3 -9 2
-5 4 4 15 2 24 -4 10 -8 9 -4 -3 10 -11 12 -16 25 -13 29 4 3 7 3 7 -1 0 -4 9
-2 20 4 11 6 18 15 15 21 -10 14 -23 11 -45 -13z"/>
<path d="M1781 243 c-11 -20 -20 -21 -31 -3 -5 8 -16 4 -35 -13 -21 -18 -25
-26 -15 -32 8 -5 11 -4 6 3 -4 7 4 10 23 10 17 -1 28 -5 25 -10 -3 -4 0 -8 5
-8 6 0 11 6 11 14 0 8 5 18 11 22 8 4 9 0 4 -15 -7 -22 12 -26 28 -6 4 6 10 5
15 -3 7 -10 11 -10 21 1 9 11 8 17 -4 27 -9 7 -15 8 -15 2 0 -15 -33 -8 -38 9
-3 11 -1 11 7 -1 9 -13 11 -13 11 3 0 9 -4 17 -10 17 -5 0 -13 -8 -19 -17z
m-31 -17 c0 -3 -4 -8 -10 -11 -5 -3 -10 -1 -10 4 0 6 5 11 10 11 6 0 10 -2 10
-4z"/>
<path d="M1036 238 c3 -5 10 -6 15 -3 13 9 11 12 -6 12 -8 0 -12 -4 -9 -9z"/>
<path d="M1190 240 c0 -5 5 -10 11 -10 5 0 7 5 4 10 -3 6 -8 10 -11 10 -2 0
-4 -4 -4 -10z"/>
<path d="M1515 229 c-4 -6 -5 -12 -2 -15 2 -3 7 2 10 11 7 17 1 20 -8 4z"/>
<path d="M1324 162 c4 -7 2 -12 -3 -12 -6 0 -11 -4 -11 -10 0 -15 17 -12 23 5
4 8 1 17 -5 21 -7 4 -8 3 -4 -4z"/>
<path d="M2010 158 c0 -5 -4 -6 -10 -3 -5 3 -10 2 -10 -4 0 -5 5 -13 10 -16 6
-3 10 -1 10 5 0 6 5 8 10 5 8 -5 8 -11 1 -19 -8 -10 -4 -16 14 -24 20 -9 23
-9 18 3 -3 8 -9 12 -14 9 -5 -3 -9 0 -9 5 0 17 21 13 37 -6 8 -10 12 -12 8 -5
-4 7 -1 21 7 30 12 15 11 16 -4 4 -11 -9 -18 -10 -23 -2 -3 6 -10 8 -15 5 -5
-3 -11 -1 -15 4 -3 6 3 8 15 6 11 -2 22 0 25 5 3 5 -8 8 -25 8 -16 -1 -30 -5
-30 -10z"/>
</g>
</svg>
